<svg width="67" height="34" viewBox="0 0 67 34" fill="none" xmlns="http://www.w3.org/2000/svg">
<path d="M9.67296 13.5006L10.4522 17.2912C10.7072 18.5254 11.7981 19.4825 13.1724 19.7092L17.4368 20.4018C18.1877 20.5277 18.1877 21.4848 17.4368 21.5982L13.1724 22.2908C11.7839 22.5175 10.7072 23.4872 10.4522 24.7088L9.67296 28.4994C9.53129 29.1669 8.45455 29.1669 8.32704 28.4994L7.54782 24.7088C7.2928 23.4746 6.20189 22.5175 4.82763 22.2908L0.563164 21.5982C-0.187721 21.4723 -0.187721 20.5152 0.563164 20.4018L4.82763 19.7092C6.21606 19.4825 7.2928 18.5128 7.54782 17.2912L8.32704 13.5006C8.46871 12.8331 9.54545 12.8331 9.67296 13.5006Z" fill="url(#paint0_linear_54_15691)"/>
<path d="M39.4486 5.37544L39.9681 8.21842C40.1381 9.14404 40.8654 9.86187 41.7816 10.0319L44.6246 10.5514C45.1251 10.6458 45.1251 11.3636 44.6246 11.4486L41.7816 11.9681C40.856 12.1381 40.1381 12.8654 39.9681 13.7816L39.4486 16.6246C39.3542 17.1251 38.6364 17.1251 38.5514 16.6246L38.0319 13.7816C37.8619 12.856 37.1346 12.1381 36.2184 11.9681L33.3754 11.4486C32.8749 11.3542 32.8749 10.6364 33.3754 10.5514L36.2184 10.0319C37.144 9.86187 37.8619 9.13459 38.0319 8.21842L38.5514 5.37544C38.6458 4.87485 39.3636 4.87485 39.4486 5.37544Z" fill="url(#paint1_linear_54_15691)"/>
<path opacity="0.6" d="M62.375 17.3122L62.8105 19.6774C62.9521 20.4462 63.5538 21.0484 64.3226 21.1895L66.6878 21.625C67.1041 21.7016 67.1041 22.2984 66.6878 22.375L64.3226 22.8105C63.5538 22.9521 62.9516 23.5538 62.8105 24.3226L62.375 26.6878C62.2984 27.1041 61.7016 27.1041 61.625 26.6878L61.1895 24.3226C61.0479 23.5538 60.4462 22.9516 59.6774 22.8105L57.3122 22.375C56.8959 22.2984 56.8959 21.7016 57.3122 21.625L59.6774 21.1895C60.4462 21.0479 61.0484 20.4462 61.1895 19.6774L61.625 17.3122C61.7016 16.8959 62.2984 16.8959 62.375 17.3122Z" fill="url(#paint2_linear_54_15691)"/>
<defs>
<linearGradient id="paint0_linear_54_15691" x1="4.34593" y1="25.1495" x2="12.5628" y2="15.9056" gradientUnits="userSpaceOnUse">
<stop stop-color="#DF4329" stop-opacity="0.9"/>
<stop offset="0.786458" stop-color="#A686F2"/>
</linearGradient>
<linearGradient id="paint1_linear_54_15691" x1="35.8973" y1="14.1122" x2="42.1027" y2="7.90673" gradientUnits="userSpaceOnUse">
<stop offset="0.33" stop-color="#10AEAE" stop-opacity="0.61"/>
<stop offset="0.43" stop-color="#1CB3B1" stop-opacity="0.66"/>
<stop offset="0.63" stop-color="#3BC0B9" stop-opacity="0.79"/>
<stop offset="0.91" stop-color="#6FD7C6"/>
</linearGradient>
<linearGradient id="paint2_linear_54_15691" x1="59.4183" y1="24.582" x2="64.5813" y2="19.419" gradientUnits="userSpaceOnUse">
<stop offset="0.2358" stop-color="#A686F2"/>
<stop offset="0.3904" stop-color="#A382F0" stop-opacity="0.9779"/>
<stop offset="0.5326" stop-color="#9A77EB" stop-opacity="0.9575"/>
<stop offset="0.67" stop-color="#8A65E3" stop-opacity="0.9379"/>
<stop offset="0.8036" stop-color="#744AD7" stop-opacity="0.9188"/>
<stop offset="0.9349" stop-color="#5829C8" stop-opacity="0.9"/>
</linearGradient>
</defs>
</svg>
