<svg xmlns="http://www.w3.org/2000/svg" viewBox="0 0 94 122"><path fill="#fff" d="M8.1 89.9 47.6 110l38-20.1V11.3H8.1z"/><path fill="#f2f3f2" d="M86.4 11.6 7.3 91.3l41 20.3 38.1-19.5z"/><path fill="#dcdedc" d="M5.5 37.5v54.1l1.4.7 39.5 20.1 1.2.6 1.2-.6 38.1-20.1 1.4-.7V8.7H5.5v28.8zm2.6 52.6V11.3h77.6v78.8l-38.1 20.1L8.1 90.1z"/><path fill="#ff492c" d="M46.9 12.6c.4 0 .8 0 1.2.1L46.9 15c-1.8-.1-3.4 1.3-3.5 3.1-.1 1.8 1.3 3.4 3.1 3.5h.4c.8 0 1.6-.3 2.2-.8l1.3 2.2c-1 .7-2.2 1.1-3.5 1.1-3.2.1-5.9-2.3-6-5.5-.1-3.2 2.3-5.9 5.5-6h.5zm4.1 4.9 1.5 2.5-1.5 2.4-1.4-2.4h-2.9l1.5-2.5H51zm-2.4-.9c0-.4.1-.8.3-1.1.2-.3.6-.6.9-.8l.2-.1c.4-.2.5-.3.5-.5s-.3-.4-.5-.4c-.4 0-.7.2-.9.6l-.5-.5c.1-.2.3-.4.5-.6.3-.2.6-.2.9-.2.3 0 .7.1.9.3.2.2.4.5.4.8 0 .5-.3.9-.9 1.1l-.3.2c-.3.2-.5.3-.6.6h1.8v.7l-2.7-.1zm-1.7 12.5 9.5-5.4v-15H37.3v14.9l9.6 5.5z"/><path fill="#ffd200" d="M90.2 64.5H3.6l-3.2 7 3.2 7h86.6l3.1-7z"/><path fill="#252530" d="M32.99 49.5q.07 0 .13.05.05.06.05.13v1.47q0 .07-.05.13-.06.05-.13.05H30.3q-.07 0-.07.08v8.41q0 .08-.05.13-.06.05-.13.05h-1.76q-.07 0-.12-.05-.06-.05-.06-.13v-8.41q0-.08-.07-.08h-2.61q-.07 0-.13-.05-.05-.06-.05-.13v-1.47q0-.07.05-.13.06-.05.13-.05h7.56Zm3.54 10.62q-1.26 0-2.16-.66-.9-.66-1.23-1.8-.21-.7-.21-1.53 0-.88.21-1.59.35-1.11 1.24-1.74.91-.63 2.16-.63 1.24 0 2.11.62.87.63 1.22 1.74.25.75.25 1.57 0 .81-.22 1.52-.32 1.17-1.22 1.83-.89.67-2.15.67Zm0-1.81q.5 0 .84-.3.35-.3.5-.83.12-.48.12-1.05 0-.63-.12-1.06-.17-.51-.51-.8-.35-.28-.84-.28-.51 0-.85.28-.34.29-.49.8-.12.35-.12 1.06 0 .68.11 1.05.14.53.5.83.35.3.86.3Zm11.89 1.81q-1.15 0-2.03-.45-.87-.45-1.36-1.27-.49-.82-.49-1.88v-6.84q0-.07.05-.13.06-.05.13-.05h1.75q.08 0 .13.05.06.06.06.13v6.86q0 .79.48 1.28.49.49 1.28.49.8 0 1.29-.49t.49-1.28v-6.86q0-.07.05-.13.05-.05.13-.05h1.75q.08 0 .13.05.05.06.05.13v6.84q0 1.06-.49 1.88-.48.82-1.36 1.27-.88.45-2.04.45Zm8.57-.02q-1 0-1.75-.28t-1.17-.79q-.41-.51-.41-1.16v-.15q0-.07.05-.13.05-.05.13-.05h1.67q.07 0 .12.05.06.06.06.13v.01q0 .34.36.57.37.23.92.23.52 0 .83-.2.31-.21.31-.5 0-.27-.26-.41-.28-.13-.89-.28-.7-.18-1.11-.35-.96-.33-1.53-.81-.57-.48-.57-1.38 0-1.11.86-1.76.86-.65 2.29-.65.96 0 1.68.3.72.31 1.12.87.4.55.4 1.26 0 .07-.06.12-.05.05-.12.05h-1.61q-.07 0-.13-.05-.05-.05-.05-.12 0-.33-.34-.56-.33-.23-.89-.23-.5 0-.81.19-.31.18-.31.49 0 .3.3.45.31.15 1.03.32l.38.09q.21.05.44.13 1.07.32 1.68.81.62.5.62 1.44 0 1.11-.88 1.73-.88.62-2.36.62Zm11.28-4.75q.09.57.06 1.27-.02.19-.2.19H63.5q-.09 0-.06.07.05.3.16.6.39.84 1.6.84.96-.01 1.51-.78.06-.09.14-.09.04 0 .1.06l1.08 1.06q.07.08.07.14 0 .03-.05.12-.5.62-1.28.95-.78.34-1.71.34-1.29 0-2.18-.58-.89-.59-1.28-1.64-.32-.75-.32-1.96 0-.83.23-1.46.34-1.06 1.2-1.69.86-.63 2.05-.63 1.5 0 2.41.87.91.87 1.1 2.32Zm-3.49-1.36q-.95 0-1.25.88-.06.2-.11.48 0 .07.08.07h2.6q.09 0 .06-.07-.08-.43-.08-.42-.13-.45-.47-.7-.34-.24-.83-.24ZM29.87 36.13q0 .08-.06.13-.05.05-.12.05h-4.93q-.07 0-.07.08v2.32q0 .08.07.08h3.23q.07 0 .13.05.05.06.05.13v1.45q0 .08-.05.13-.06.06-.13.06h-3.23q-.07 0-.07.07v2.43q0 .08.07.08h4.93q.07 0 .12.05.06.05.06.12v1.46q0 .08-.06.13-.05.05-.12.05h-6.94q-.07 0-.12-.05-.06-.05-.06-.13V34.68q0-.07.06-.13.05-.05.12-.05h6.94q.07 0 .12.05.06.06.06.13v1.45Zm4.41 1.04q.97 0 1.74.34.76.34 1.19.92.42.59.42 1.31v5.08q0 .08-.05.13t-.13.05H35.7q-.08 0-.13-.05t-.05-.13v-.49q0-.05-.03-.06-.03-.02-.06.03-.63.82-2.03.82-1.17 0-1.88-.57-.73-.57-.73-1.68 0-1.15.82-1.79.8-.64 2.3-.64h1.54q.07 0 .07-.07v-.33q0-.5-.3-.78-.3-.27-.9-.27-.46 0-.77.16-.31.17-.4.47-.04.16-.2.15l-1.81-.24q-.18-.03-.17-.14.07-.63.51-1.14.44-.51 1.17-.79.72-.29 1.63-.29Zm-.31 6.38q.65 0 1.1-.35.45-.35.45-.89v-.54q0-.07-.07-.07h-1.08q-.68 0-1.06.26-.38.25-.38.72 0 .4.28.63.28.24.76.24Zm8.23 1.55q-1.01 0-1.76-.28t-1.16-.79q-.42-.51-.42-1.16v-.15q0-.07.06-.13.05-.05.12-.05h1.67q.08 0 .13.05.05.06.05.13v.01q0 .34.37.57.36.23.92.23.51 0 .82-.2.32-.21.32-.5 0-.27-.27-.41-.27-.13-.89-.28-.7-.18-1.11-.35-.96-.33-1.53-.81-.57-.48-.57-1.38 0-1.11.87-1.76.86-.65 2.29-.65.96 0 1.68.3.71.31 1.11.87.4.55.4 1.26 0 .07-.05.12-.05.05-.13.05h-1.6q-.08 0-.13-.05t-.05-.12q0-.33-.34-.56-.34-.23-.89-.23-.5 0-.82.19-.31.18-.31.49 0 .3.31.45.3.15 1.03.32.16.04.37.09.21.05.45.13 1.07.32 1.68.81.61.5.61 1.44 0 1.11-.87 1.73-.88.62-2.36.62Zm5.59-8.68q-.51 0-.85-.34-.33-.33-.33-.84 0-.53.33-.86.33-.33.85-.33.53 0 .85.33.34.33.34.86 0 .51-.34.84-.34.34-.85.34Zm-.9 8.58q-.07 0-.13-.05-.05-.05-.05-.13v-7.36q0-.08.05-.13.06-.05.13-.05h1.75q.08 0 .13.05t.05.13v7.36q0 .08-.05.13t-.13.05h-1.75Zm10.41-4.65q.09.57.06 1.27-.01.19-.19.19h-4.64q-.09 0-.06.07.05.3.17.6.39.84 1.58.84.96-.01 1.52-.78.06-.09.14-.09.04 0 .1.06l1.08 1.06q.08.08.08.14 0 .03-.07.12-.49.62-1.27.95-.78.34-1.71.34-1.29 0-2.18-.58-.89-.59-1.29-1.64-.31-.75-.31-1.96 0-.83.23-1.46.34-1.06 1.2-1.69.87-.63 2.05-.63 1.5 0 2.41.87.91.87 1.1 2.32Zm-3.5-1.36q-.94 0-1.24.88-.06.2-.1.48 0 .07.07.07h2.6q.08 0 .05-.07-.07-.43-.07-.42-.14-.45-.47-.7-.34-.24-.84-.24Zm7.84 6.11q-1.01 0-1.76-.28t-1.16-.79q-.41-.51-.41-1.16v-.15q0-.07.05-.13.05-.05.13-.05h1.66q.08 0 .13.05.05.06.05.13v.01q0 .34.37.57.37.23.92.23.51 0 .83-.2.31-.21.31-.5 0-.27-.27-.41-.27-.13-.88-.28-.71-.18-1.11-.35-.96-.33-1.53-.81-.57-.48-.57-1.38 0-1.11.86-1.76.86-.65 2.29-.65.96 0 1.68.3.72.31 1.11.87.4.55.4 1.26 0 .07-.05.12-.05.05-.13.05h-1.6q-.08 0-.13-.05t-.05-.12q0-.33-.34-.56-.34-.23-.89-.23-.5 0-.81.19-.32.18-.32.49 0 .3.31.45.31.15 1.03.32.16.04.37.09.21.05.45.13 1.07.32 1.68.81.62.5.62 1.44 0 1.11-.88 1.73-.88.62-2.36.62Zm8.86-6.29q0 .07-.05.12-.05.06-.13.06h-1.44q-.07 0-.07.07v3.18q0 .49.2.74.2.24.65.24h.5q.07 0 .12.05.06.05.06.13v1.42q0 .17-.18.19-.63.03-.9.03-1.25 0-1.86-.41-.62-.41-.63-1.55v-4.02q0-.07-.08-.07h-.85q-.08 0-.13-.06-.05-.05-.05-.12v-1.34q0-.07.05-.13.05-.05.13-.05h.85q.08 0 .08-.08v-1.78q0-.07.05-.13.05-.05.13-.05h1.68q.07 0 .12.05.06.06.06.13v1.78q0 .08.07.08h1.44q.08 0 .13.05.05.06.05.13v1.34Z"/><path fill="#242530" d="M28.74 69.28q0 .05-.03.08-.04.04-.09.04h-3.41q-.05 0-.05.05v1.87q0 .05.05.05h2.29q.05 0 .09.03.03.04.03.09v.76q0 .05-.03.09-.04.03-.09.03h-2.29q-.05 0-.05.05v1.93q0 .05.05.05h3.41q.05 0 .09.04.03.03.03.08v.76q0 .05-.03.08-.04.04-.09.04h-4.5q-.05 0-.08-.04-.04-.03-.04-.08v-6.76q0-.05.04-.08.03-.04.08-.04h4.5q.05 0 .09.04.03.03.03.08v.76Zm3.52.93q.81 0 1.3.48.48.48.48 1.31v3.28q0 .05-.04.08-.03.04-.08.04H33q-.05 0-.09-.04-.03-.03-.03-.08v-3.04q0-.46-.26-.75-.26-.28-.69-.28-.43 0-.7.28-.26.28-.26.74v3.05q0 .05-.03.08-.04.04-.09.04h-.92q-.05 0-.08-.04-.04-.03-.04-.08v-4.87q0-.05.04-.09.03-.03.08-.03h.92q.05 0 .09.03.03.04.03.09v.32q0 .03.02.04.02.01.03-.02.41-.54 1.24-.54Zm5.7.9q0 .05-.04.08-.03.04-.08.04h-1.02q-.05 0-.05.05v2.41q0 .38.16.55.17.17.53.17h.3q.05 0 .08.03.04.04.04.09v.75q0 .11-.12.13l-.52.01q-.79 0-1.18-.27-.39-.27-.4-1.02v-2.85q0-.05-.05-.05h-.57q-.05 0-.09-.04-.03-.03-.03-.08v-.7q0-.05.03-.09.04-.03.09-.03h.57q.05 0 .05-.05v-1.17q0-.05.03-.09.04-.03.09-.03h.87q.05 0 .08.03.04.04.04.09v1.17q0 .05.05.05h1.02q.05 0 .08.03.04.04.04.09v.7Zm5.24 1.16q.04.25.04.56l-.01.31q0 .12-.12.12h-3.13q-.05 0-.05.05.03.33.09.45.24.72 1.17.73.68 0 1.08-.56.04-.06.1-.06.04 0 .07.03l.62.51q.09.07.03.16-.31.44-.82.68-.52.24-1.15.24-.78 0-1.33-.35-.54-.35-.79-.98-.23-.54-.23-1.5 0-.58.12-.94.2-.7.76-1.11.55-.4 1.33-.4 1.97 0 2.22 2.06Zm-2.22-1.06q-.37 0-.62.19-.24.18-.34.51-.06.17-.08.44-.02.05.04.05h2.03q.05 0 .05-.05-.02-.25-.06-.38-.09-.36-.35-.56-.27-.2-.67-.2Zm5.7-.98q.32 0 .56.13.08.04.06.15l-.17.9q-.01.12-.14.07-.15-.05-.35-.05-.13 0-.2.01-.42.02-.7.29-.28.28-.28.72v2.83q0 .05-.03.08-.04.04-.09.04h-.92q-.05 0-.08-.04-.04-.03-.04-.08v-4.87q0-.05.04-.09.03-.03.08-.03h.92q.05 0 .09.03.03.04.03.09v.45q0 .04.01.04.02.01.04-.02.42-.65 1.17-.65Zm5.71 1.38q.18.51.18 1.25 0 .71-.17 1.22-.22.66-.7 1.03-.49.37-1.23.37-.71 0-1.14-.51-.02-.02-.04-.01t-.02.04v2.17q0 .05-.03.08-.04.04-.09.04h-.92q-.05 0-.08-.04-.04-.03-.04-.08v-6.76q0-.05.04-.09.03-.03.08-.03h.92q.05 0 .09.03.03.04.03.09v.3q0 .03.02.04.02.01.04-.02.44-.52 1.15-.52t1.2.37q.49.37.71 1.03Zm-1.3 2.45q.3-.46.3-1.22 0-.73-.24-1.15-.28-.49-.85-.49-.52 0-.78.48-.23.39-.23 1.16 0 .79.25 1.2.26.44.75.44.53 0 .8-.42Zm4.98-3.83q.32 0 .56.13.08.04.06.15l-.17.9q-.01.12-.14.07-.15-.05-.35-.05-.13 0-.2.01-.42.02-.7.29-.28.28-.28.72v2.83q0 .05-.03.08-.04.04-.09.04h-.92q-.05 0-.08-.04-.04-.03-.04-.08v-4.87q0-.05.04-.09.03-.03.08-.03h.92q.05 0 .09.03.03.04.03.09v.45q0 .04.01.04.02.01.04-.02.42-.65 1.17-.65Zm2.04-.64q-.31 0-.51-.2t-.2-.51q0-.31.2-.51t.51-.2q.31 0 .51.2t.2.51q0 .31-.2.51t-.51.2Zm-.48 5.81q-.05 0-.08-.04-.04-.03-.04-.08V70.4q0-.05.04-.08.03-.04.08-.04h.92q.05 0 .09.04.03.03.03.08v4.88q0 .05-.03.08-.04.04-.09.04h-.92Zm4.27.06q-.63 0-1.11-.19-.47-.18-.73-.51-.26-.32-.26-.72v-.09q0-.05.03-.09.04-.03.09-.03h.88q.05 0 .09.03.03.04.03.09v.02q0 .25.27.44.28.18.7.18.4 0 .65-.16.25-.17.25-.42 0-.23-.21-.35-.2-.11-.66-.24l-.38-.12q-.51-.15-.86-.32t-.59-.47q-.24-.29-.24-.75 0-.7.55-1.11.55-.42 1.45-.42.61 0 1.07.19.46.2.71.54.25.35.25.79 0 .05-.03.09-.04.03-.09.03h-.85q-.05 0-.09-.03-.03-.04-.03-.09 0-.26-.25-.43-.26-.18-.7-.18-.39 0-.63.14-.25.15-.25.41 0 .24.23.36.24.13.79.28l.22.06q.53.16.89.32.36.17.61.46.25.3.25.77 0 .71-.56 1.11-.56.41-1.49.41Zm7.34-3.19q.04.25.04.56l-.01.31q0 .12-.12.12h-3.13q-.05 0-.05.05.03.33.09.45.24.72 1.17.73.68 0 1.08-.56.04-.06.1-.06.04 0 .07.03l.62.51q.09.07.03.16-.31.44-.83.68-.51.24-1.14.24-.78 0-1.33-.35-.54-.35-.79-.98-.23-.54-.23-1.5 0-.58.12-.94.2-.7.75-1.11.56-.4 1.34-.4 1.97 0 2.22 2.06Zm-2.22-1.06q-.37 0-.62.19-.24.18-.34.51-.06.17-.08.44-.02.05.04.05h2.03q.05 0 .05-.05-.02-.25-.06-.38-.09-.36-.36-.56-.26-.2-.66-.2Z"/><path fill="#252530" d="M30.57 89.58q-.8 0-1.4-.26-.6-.25-.92-.73-.33-.47-.33-1.1v-.22q0-.05.04-.08.03-.04.08-.04h1.14q.05 0 .09.04.03.03.03.08v.15q0 .4.37.67.37.28 1 .28.53 0 .79-.22.26-.23.26-.56 0-.24-.16-.4-.16-.17-.44-.29-.27-.13-.87-.35-.67-.23-1.14-.47-.46-.24-.77-.66-.32-.41-.32-1.02 0-.6.31-1.05.31-.45.86-.69.55-.24 1.27-.24.76 0 1.35.27.6.27.94.76.33.48.33 1.12v.15q0 .05-.03.08-.04.04-.09.04h-1.15q-.05 0-.08-.04-.04-.03-.04-.08v-.08q0-.42-.34-.72-.35-.29-.95-.29-.47 0-.74.2-.26.2-.26.55 0 .25.16.42.15.17.46.3.3.14.94.37.71.26 1.11.46.41.2.74.59.32.4.32 1.03 0 .94-.69 1.48-.69.55-1.87.55Zm6.09 0q-.77 0-1.35-.3-.59-.3-.92-.84-.32-.55-.32-1.26v-4.56q0-.05.03-.08.04-.04.09-.04h1.17q.05 0 .08.04.04.03.04.08v4.57q0 .53.33.85.32.33.85.33t.86-.33q.32-.32.32-.85v-4.57q0-.05.04-.08.03-.04.08-.04h1.17q.05 0 .09.04.03.03.03.08v4.56q0 .71-.32 1.26-.33.54-.91.84-.59.3-1.36.3Zm8.25-7q.05-.08.14-.08h1.17q.05 0 .09.04.03.03.03.08v6.76q0 .05-.03.08-.04.04-.09.04h-1.17q-.05 0-.08-.04-.04-.03-.04-.08v-4.41q0-.04-.02-.04t-.04.03l-1.06 1.66q-.05.08-.14.08h-.59q-.09 0-.14-.08l-1.06-1.66q-.02-.03-.04-.03-.02.01-.02.05v4.4q0 .05-.04.08-.03.04-.08.04h-1.17q-.05 0-.09-.04-.03-.03-.03-.08v-6.76q0-.05.03-.08.04-.04.09-.04h1.17q.09 0 .14.08l1.5 2.33q.03.06.06 0l1.51-2.33Zm7.15 0q.05-.08.14-.08h1.17q.05 0 .08.04.04.03.04.08v6.76q0 .05-.04.08-.03.04-.08.04H52.2q-.05 0-.09-.04-.03-.03-.03-.08v-4.41q0-.04-.02-.04t-.04.03l-1.06 1.66q-.05.08-.14.08h-.59q-.09 0-.14-.08l-1.06-1.66q-.02-.03-.04-.03-.02.01-.02.05v4.4q0 .05-.03.08-.04.04-.09.04h-1.17q-.05 0-.08-.04-.04-.03-.04-.08v-6.76q0-.05.04-.08.03-.04.08-.04h1.17q.09 0 .14.08l1.5 2.33q.03.06.06 0l1.51-2.33Zm7.51 1.01q0 .05-.03.08-.04.04-.09.04h-3.28q-.05 0-.05.05v1.55q0 .05.05.05h2.15q.05 0 .08.03.04.04.04.09v.97q0 .05-.04.09-.03.03-.08.03h-2.15q-.05 0-.05.05v1.62q0 .05.05.05h3.28q.05 0 .09.03.03.04.03.09v.97q0 .05-.03.08-.04.04-.09.04h-4.62q-.05 0-.09-.04-.03-.03-.03-.08v-6.76q0-.05.03-.08.04-.04.09-.04h4.62q.05 0 .09.04.03.03.03.08v.97Zm4.82 5.91q-.1 0-.14-.09L63 86.64q-.02-.04-.06-.04h-.93q-.05 0-.05.05v2.73q0 .05-.04.08-.03.04-.08.04h-1.17q-.05 0-.09-.04-.03-.03-.03-.08v-6.76q0-.05.03-.08.04-.04.09-.04h2.86q.64 0 1.12.26.49.26.75.74.27.48.27 1.11 0 .68-.34 1.16-.34.49-.95.69-.05.02-.03.07l1.36 2.83q.02.04.02.06 0 .08-.11.08h-1.23Zm-2.38-5.79q-.05 0-.05.05v1.71q0 .05.05.05h1.31q.42 0 .68-.25.27-.25.27-.65t-.27-.66q-.26-.25-.68-.25h-1.31ZM37.68 97.63q-.02.02-.01.04t.04.02h2.71q.05 0 .09.03.03.04.03.09v.97q0 .05-.03.08-.04.04-.09.04h-4.5q-.05 0-.09-.04-.03-.03-.03-.08v-.92q0-.09.06-.15.49-.48 1-1.04.51-.57.64-.71.28-.33.57-.63.91-1.01.91-1.5 0-.35-.25-.58-.25-.22-.65-.22t-.65.22q-.25.23-.25.6v.25q0 .05-.04.09-.03.03-.08.03h-1.18q-.05 0-.08-.03-.04-.04-.04-.09v-.47q.03-.54.34-.96.31-.41.82-.63.52-.22 1.16-.22.71 0 1.24.26.52.27.81.72.28.45.28 1 0 .42-.21.86t-.63.95q-.31.39-.67.77-.36.38-1.07 1.1l-.15.15Zm6.11 1.38q-1.1 0-1.74-.62-.64-.61-.64-1.67v-2.64q0-1.04.64-1.65.64-.61 1.74-.61t1.75.61q.64.61.64 1.65v2.64q0 1.06-.64 1.67-.65.62-1.75.62Zm0-1.21q.45 0 .72-.28.26-.27.26-.73v-2.75q0-.46-.26-.73-.27-.28-.72-.28-.44 0-.7.28-.27.27-.27.73v2.75q0 .46.27.73.26.28.7.28Zm5.19-.17q-.02.02-.01.04t.04.02h2.71q.05 0 .09.03.03.04.03.09v.97q0 .05-.03.08-.04.04-.09.04h-4.5q-.05 0-.08-.04-.04-.03-.04-.08v-.92q0-.09.06-.15.49-.48 1-1.04.51-.57.64-.71.28-.33.57-.63.91-1.01.91-1.5 0-.35-.25-.58-.25-.22-.65-.22t-.65.22q-.25.23-.25.6v.25q0 .05-.03.09-.04.03-.09.03h-1.18q-.05 0-.08-.03-.04-.04-.04-.09v-.47q.03-.54.34-.96.31-.41.83-.63.51-.22 1.15-.22.71 0 1.24.26.52.27.81.72.28.45.28 1 0 .42-.21.86t-.63.95q-.31.39-.67.77-.36.38-1.07 1.1l-.15.15Zm8.73-1.78q.05 0 .09.03.03.04.03.09v1.01q0 .05-.03.09-.04.03-.09.03h-.43q-.05 0-.05.05v1.63q0 .05-.03.08-.04.04-.09.04h-1.17q-.05 0-.08-.04-.04-.03-.04-.08v-1.63q0-.05-.05-.05H52.7q-.05 0-.08-.03-.04-.04-.04-.09v-.8q0-.06.03-.15l1.8-4.04q.04-.09.14-.09h1.25q.07 0 .1.04.02.03-.01.1l-1.67 3.75q-.01.02 0 .04t.03.02h1.52q.05 0 .05-.05v-1.24q0-.05.04-.08.03-.04.08-.04h1.17q.05 0 .09.04.03.03.03.08v1.24q0 .05.05.05h.43Z"/></svg>
