<svg width="68" height="34" viewBox="0 0 68 34" fill="none" xmlns="http://www.w3.org/2000/svg">
<rect width="68" height="34" fill="#1E1E1E"/>
<path d="M-534 -111C-534 -112.105 -533.105 -113 -532 -113H1202C1203.1 -113 1204 -112.105 1204 -111V1249C1204 1250.1 1203.1 1251 1202 1251H-532C-533.105 1251 -534 1250.1 -534 1249V-111Z" fill="#404040"/>
<path d="M-532 -112H1202V-114H-532V-112ZM1203 -111V1249H1205V-111H1203ZM1202 1250H-532V1252H1202V1250ZM-533 1249V-111H-535V1249H-533ZM-532 1250C-532.552 1250 -533 1249.55 -533 1249H-535C-535 1250.66 -533.657 1252 -532 1252V1250ZM1203 1249C1203 1249.55 1202.55 1250 1202 1250V1252C1203.66 1252 1205 1250.66 1205 1249H1203ZM1202 -112C1202.55 -112 1203 -111.552 1203 -111H1205C1205 -112.657 1203.66 -114 1202 -114V-112ZM-532 -114C-533.657 -114 -535 -112.657 -535 -111H-533C-533 -111.552 -532.552 -112 -532 -112V-114Z" fill="white" fill-opacity="0.1"/>
<g clip-path="url(#clip0_54_4828)">
<rect width="1440" height="962" transform="translate(-385 -9)" fill="white"/>
<rect width="1440" height="52" transform="translate(-385 -9)" fill="#171321"/>
<path d="M63.1288 6.2503L62.7392 8.14561C62.6117 8.76269 62.0663 9.24124 61.3791 9.35458L59.2469 9.70091C58.8715 9.76387 58.8715 10.2424 59.2469 10.2991L61.3791 10.6454C62.0734 10.7588 62.6117 11.2436 62.7392 11.8544L63.1288 13.7497C63.1997 14.0834 63.7381 14.0834 63.8018 13.7497L64.1914 11.8544C64.3189 11.2373 64.8644 10.7588 65.5515 10.6454L67.6837 10.2991C68.0592 10.2361 68.0592 9.75758 67.6837 9.70091L65.5515 9.35458C64.8573 9.24124 64.3189 8.7564 64.1914 8.14561L63.8018 6.2503C63.731 5.91657 63.1926 5.91657 63.1288 6.2503Z" fill="url(#paint0_linear_54_4828)"/>
<path d="M36.2924 12.5632L35.5131 16.8276C35.2581 18.2161 34.1672 19.2928 32.793 19.5478L28.5285 20.327C27.7776 20.4687 27.7776 21.5455 28.5285 21.673L32.793 22.4522C34.1814 22.7072 35.2581 23.7981 35.5131 25.1724L36.2924 29.4368C36.434 30.1877 37.5108 30.1877 37.6383 29.4368L38.4175 25.1724C38.6725 23.7839 39.7634 22.7072 41.1377 22.4522L45.4022 21.673C46.1531 21.5313 46.1531 20.4545 45.4022 20.327L41.1377 19.5478C39.7493 19.2928 38.6725 18.2019 38.4175 16.8276L37.6383 12.5632C37.4966 11.8123 36.4199 11.8123 36.2924 12.5632Z" fill="url(#paint1_linear_54_4828)"/>
<path opacity="0.6" d="M7.44031 2.43701L6.83064 5.74835C6.63236 6.8247 5.79002 7.66771 4.71367 7.86532L1.40235 8.47497C0.819659 8.5822 0.819659 9.4178 1.40235 9.52503L4.71367 10.1347C5.79002 10.333 6.63303 11.1753 6.83064 12.2516L7.44031 15.563C7.54754 16.1457 8.38312 16.1457 8.49035 15.563L9.10003 12.2516C9.2983 11.1753 10.1406 10.3323 11.217 10.1347L14.5283 9.52503C15.111 9.4178 15.111 8.5822 14.5283 8.47497L11.217 7.86532C10.1406 7.66704 9.29763 6.8247 9.10003 5.74835L8.49035 2.43701C8.38312 1.85433 7.54754 1.85433 7.44031 2.43701Z" fill="url(#paint2_linear_54_4828)"/>
</g>
<defs>
<linearGradient id="paint0_linear_54_4828" x1="65.7924" y1="12.0748" x2="61.6839" y2="7.4528" gradientUnits="userSpaceOnUse">
<stop stop-color="#DF4329" stop-opacity="0.9"/>
<stop offset="0.786458" stop-color="#A686F2"/>
</linearGradient>
<linearGradient id="paint1_linear_54_4828" x1="41.6194" y1="25.6682" x2="32.3113" y2="16.3601" gradientUnits="userSpaceOnUse">
<stop offset="0.33" stop-color="#10AEAE" stop-opacity="0.61"/>
<stop offset="0.43" stop-color="#1CB3B1" stop-opacity="0.66"/>
<stop offset="0.63" stop-color="#3BC0B9" stop-opacity="0.79"/>
<stop offset="0.91" stop-color="#6FD7C6"/>
</linearGradient>
<linearGradient id="paint2_linear_54_4828" x1="11.5797" y1="12.6148" x2="4.35153" y2="5.3866" gradientUnits="userSpaceOnUse">
<stop offset="0.2358" stop-color="#A686F2"/>
<stop offset="0.3904" stop-color="#A382F0" stop-opacity="0.9779"/>
<stop offset="0.5326" stop-color="#9A77EB" stop-opacity="0.9575"/>
<stop offset="0.67" stop-color="#8A65E3" stop-opacity="0.9379"/>
<stop offset="0.8036" stop-color="#744AD7" stop-opacity="0.9188"/>
<stop offset="0.9349" stop-color="#5829C8" stop-opacity="0.9"/>
</linearGradient>
<clipPath id="clip0_54_4828">
<rect width="1440" height="962" fill="white" transform="translate(-385 -9)"/>
</clipPath>
</defs>
</svg>
