<svg width="307" height="56" viewBox="0 0 307 56" fill="none" xmlns="http://www.w3.org/2000/svg">
<g filter="url(#filter0_d_0_14)">
<rect x="4" width="299" height="48" rx="24" fill="#171321" shape-rendering="crispEdges"/>
<rect x="4.75" y="0.75" width="297.5" height="46.5" rx="23.25" stroke="url(#paint0_linear_0_14)" stroke-width="1.5" shape-rendering="crispEdges"/>
<path d="M29.2523 14.6257L28.3865 19.364C28.1031 20.9067 26.891 22.1031 25.364 22.3865L20.6257 23.2523C19.7914 23.4097 19.7914 24.6061 20.6257 24.7477L25.364 25.6135C26.9067 25.8969 28.1031 27.109 28.3865 28.636L29.2523 33.3743C29.4097 34.2086 30.6061 34.2086 30.7477 33.3743L31.6135 28.636C31.8969 27.0933 33.109 25.8969 34.636 25.6135L39.3743 24.7477C40.2086 24.5903 40.2086 23.3939 39.3743 23.2523L34.636 22.3865C33.0933 22.1031 31.8969 20.891 31.6135 19.364L30.7477 14.6257C30.5903 13.7914 29.3939 13.7914 29.2523 14.6257Z" fill="url(#paint1_linear_0_14)"/>
<path d="M58.4148 21.1193C58.2727 20.6591 58.0767 20.2472 57.8267 19.8835C57.5824 19.5142 57.2869 19.1989 56.9403 18.9375C56.5994 18.6761 56.2074 18.4801 55.7642 18.3494C55.321 18.2131 54.8381 18.1449 54.3153 18.1449C53.3778 18.1449 52.5426 18.3807 51.8097 18.8523C51.0767 19.3239 50.5 20.017 50.0795 20.9318C49.6648 21.8409 49.4574 22.9489 49.4574 24.2557C49.4574 25.5739 49.6648 26.6903 50.0795 27.6051C50.4943 28.5199 51.071 29.2159 51.8097 29.6932C52.5483 30.1648 53.4063 30.4006 54.3835 30.4006C55.2699 30.4006 56.0369 30.2301 56.6847 29.8892C57.3381 29.5483 57.8409 29.0653 58.1932 28.4403C58.5455 27.8097 58.7216 27.071 58.7216 26.2244L59.4375 26.3352H54.6989V23.8636H61.7812V25.9602C61.7812 27.4545 61.4631 28.7472 60.8267 29.8381C60.1903 30.929 59.3153 31.7699 58.2017 32.3608C57.0881 32.946 55.8097 33.2386 54.3665 33.2386C52.7585 33.2386 51.3466 32.8778 50.1307 32.1562C48.9205 31.429 47.9744 30.3977 47.2926 29.0625C46.6165 27.7216 46.2784 26.1307 46.2784 24.2898C46.2784 22.8807 46.4773 21.6222 46.875 20.5142C47.2784 19.4062 47.8409 18.4659 48.5625 17.6932C49.2841 16.9148 50.1307 16.3239 51.1023 15.9205C52.0739 15.5114 53.1307 15.3068 54.2727 15.3068C55.2386 15.3068 56.1392 15.4489 56.9744 15.733C57.8097 16.0114 58.5511 16.4091 59.1989 16.9261C59.8523 17.4432 60.3892 18.0568 60.8097 18.767C61.2301 19.4773 61.5057 20.2614 61.6364 21.1193H58.4148ZM64.8027 33V19.9091H67.888V33H64.8027ZM66.3539 18.0511C65.8652 18.0511 65.4448 17.8892 65.0925 17.5653C64.7402 17.2358 64.5641 16.8409 64.5641 16.3807C64.5641 15.9148 64.7402 15.5199 65.0925 15.196C65.4448 14.8665 65.8652 14.7017 66.3539 14.7017C66.8482 14.7017 67.2686 14.8665 67.6152 15.196C67.9675 15.5199 68.1436 15.9148 68.1436 16.3807C68.1436 16.8409 67.9675 17.2358 67.6152 17.5653C67.2686 17.8892 66.8482 18.0511 66.3539 18.0511ZM76.8775 19.9091V22.2955H69.3519V19.9091H76.8775ZM71.2099 16.7727H74.2951V29.0625C74.2951 29.4773 74.3576 29.7955 74.4826 30.017C74.6133 30.233 74.7837 30.3807 74.9939 30.4602C75.2042 30.5398 75.4371 30.5795 75.6928 30.5795C75.886 30.5795 76.0621 30.5653 76.2212 30.5369C76.386 30.5085 76.511 30.483 76.5962 30.4602L77.1161 32.8722C76.9513 32.929 76.7155 32.9915 76.4087 33.0597C76.1076 33.1278 75.7383 33.1676 75.3008 33.179C74.528 33.2017 73.832 33.0852 73.2127 32.8295C72.5934 32.5682 72.1019 32.1648 71.7383 31.6193C71.3803 31.0739 71.2042 30.392 71.2099 29.5739V16.7727ZM79.1553 33V15.5455H82.3173V30.3494H90.0048V33H79.1553ZM95.6598 33.2642C94.8302 33.2642 94.0831 33.1165 93.4183 32.821C92.7592 32.5199 92.2365 32.0767 91.8501 31.4915C91.4694 30.9062 91.2791 30.1847 91.2791 29.3267C91.2791 28.5881 91.4155 27.9773 91.6882 27.4943C91.9609 27.0114 92.3331 26.625 92.8047 26.3352C93.2762 26.0455 93.8075 25.8267 94.3984 25.679C94.995 25.5256 95.6115 25.4148 96.2478 25.3466C97.0149 25.267 97.637 25.196 98.1143 25.1335C98.5916 25.0653 98.9382 24.9631 99.1541 24.8267C99.3757 24.6847 99.4865 24.4659 99.4865 24.1705V24.1193C99.4865 23.4773 99.2961 22.9801 98.9155 22.6278C98.5348 22.2756 97.9865 22.0994 97.2706 22.0994C96.5149 22.0994 95.9155 22.2642 95.4723 22.5938C95.0348 22.9233 94.7393 23.3125 94.5859 23.7614L91.7052 23.3523C91.9325 22.5568 92.3075 21.892 92.8302 21.358C93.353 20.8182 93.9922 20.4148 94.7478 20.1477C95.5035 19.875 96.3387 19.7386 97.2535 19.7386C97.8842 19.7386 98.512 19.8125 99.137 19.9602C99.762 20.108 100.333 20.3523 100.85 20.6932C101.367 21.0284 101.782 21.4858 102.094 22.0653C102.413 22.6449 102.572 23.3693 102.572 24.2386V33H99.6058V31.2017H99.5035C99.316 31.5653 99.0518 31.9062 98.7109 32.2244C98.3757 32.5369 97.9524 32.7898 97.441 32.983C96.9353 33.1705 96.3416 33.2642 95.6598 33.2642ZM96.4609 30.9972C97.0802 30.9972 97.6172 30.875 98.0717 30.6307C98.5262 30.3807 98.8757 30.0511 99.12 29.642C99.37 29.233 99.495 28.7869 99.495 28.304V26.7614C99.3984 26.8409 99.2336 26.9148 99.0007 26.983C98.7734 27.0511 98.5177 27.1108 98.2336 27.1619C97.9495 27.2131 97.6683 27.2585 97.3899 27.2983C97.1115 27.3381 96.87 27.3722 96.6655 27.4006C96.2052 27.4631 95.7933 27.5653 95.4297 27.7074C95.066 27.8494 94.7791 28.0483 94.5689 28.304C94.3586 28.554 94.2535 28.8778 94.2535 29.2756C94.2535 29.8438 94.4609 30.2727 94.8757 30.5625C95.2905 30.8523 95.8189 30.9972 96.4609 30.9972ZM105.09 33V15.5455H108.176V22.0739H108.303C108.463 21.7557 108.687 21.4176 108.977 21.0597C109.266 20.696 109.659 20.3864 110.153 20.1307C110.647 19.8693 111.278 19.7386 112.045 19.7386C113.056 19.7386 113.968 19.9972 114.781 20.5142C115.599 21.0256 116.247 21.7841 116.724 22.7898C117.207 23.7898 117.448 25.017 117.448 26.4716C117.448 27.9091 117.213 29.1307 116.741 30.1364C116.269 31.142 115.627 31.9091 114.815 32.4375C114.002 32.9659 113.082 33.2301 112.053 33.2301C111.303 33.2301 110.681 33.1051 110.187 32.8551C109.693 32.6051 109.295 32.304 108.994 31.9517C108.698 31.5937 108.468 31.2557 108.303 30.9375H108.124V33H105.09ZM108.116 26.4545C108.116 27.3011 108.235 28.0426 108.474 28.679C108.718 29.3153 109.068 29.8125 109.522 30.1705C109.982 30.5227 110.539 30.6989 111.193 30.6989C111.874 30.6989 112.445 30.517 112.906 30.1534C113.366 29.7841 113.713 29.2812 113.945 28.6449C114.184 28.0028 114.303 27.2727 114.303 26.4545C114.303 25.642 114.187 24.9205 113.954 24.2898C113.721 23.6591 113.374 23.1648 112.914 22.8068C112.454 22.4489 111.88 22.2699 111.193 22.2699C110.534 22.2699 109.974 22.4432 109.514 22.7898C109.053 23.1364 108.704 23.6222 108.465 24.2472C108.232 24.8722 108.116 25.608 108.116 26.4545ZM130.635 33H124.721V15.5455H130.755C132.488 15.5455 133.976 15.8949 135.221 16.5938C136.471 17.2869 137.431 18.2841 138.101 19.5852C138.772 20.8864 139.107 22.4432 139.107 24.2557C139.107 26.0739 138.769 27.6364 138.093 28.9432C137.422 30.25 136.454 31.2528 135.187 31.9517C133.925 32.6506 132.408 33 130.635 33ZM127.883 30.2642H130.482C131.698 30.2642 132.712 30.0426 133.525 29.5994C134.337 29.1506 134.948 28.483 135.357 27.5966C135.766 26.7045 135.971 25.5909 135.971 24.2557C135.971 22.9205 135.766 21.8125 135.357 20.9318C134.948 20.0455 134.343 19.3835 133.542 18.946C132.746 18.5028 131.758 18.2812 130.576 18.2812H127.883V30.2642ZM149.599 27.4943V19.9091H152.684V33H149.692V30.6733H149.556C149.261 31.4062 148.775 32.0057 148.099 32.4716C147.428 32.9375 146.602 33.1705 145.619 33.1705C144.761 33.1705 144.002 32.9801 143.343 32.5994C142.69 32.2131 142.178 31.6534 141.809 30.9205C141.44 30.1818 141.255 29.2898 141.255 28.2443V19.9091H144.34V27.767C144.34 28.5966 144.567 29.2557 145.022 29.7443C145.477 30.233 146.073 30.4773 146.812 30.4773C147.266 30.4773 147.707 30.3665 148.133 30.1449C148.559 29.9233 148.908 29.5938 149.181 29.1562C149.459 28.7131 149.599 28.1591 149.599 27.4943ZM160.847 33.2557C159.568 33.2557 158.46 32.9744 157.523 32.4119C156.585 31.8494 155.858 31.0625 155.341 30.0511C154.83 29.0398 154.574 27.858 154.574 26.5057C154.574 25.1534 154.83 23.9687 155.341 22.9517C155.858 21.9347 156.585 21.1449 157.523 20.5824C158.46 20.0199 159.568 19.7386 160.847 19.7386C162.125 19.7386 163.233 20.0199 164.171 20.5824C165.108 21.1449 165.832 21.9347 166.344 22.9517C166.861 23.9687 167.119 25.1534 167.119 26.5057C167.119 27.858 166.861 29.0398 166.344 30.0511C165.832 31.0625 165.108 31.8494 164.171 32.4119C163.233 32.9744 162.125 33.2557 160.847 33.2557ZM160.864 30.7841C161.557 30.7841 162.136 30.5937 162.602 30.2131C163.068 29.8267 163.415 29.3097 163.642 28.6619C163.875 28.0142 163.992 27.2926 163.992 26.4972C163.992 25.696 163.875 24.9716 163.642 24.3239C163.415 23.6705 163.068 23.1506 162.602 22.7642C162.136 22.3778 161.557 22.1847 160.864 22.1847C160.154 22.1847 159.563 22.3778 159.091 22.7642C158.625 23.1506 158.276 23.6705 158.043 24.3239C157.815 24.9716 157.702 25.696 157.702 26.4972C157.702 27.2926 157.815 28.0142 158.043 28.6619C158.276 29.3097 158.625 29.8267 159.091 30.2131C159.563 30.5937 160.154 30.7841 160.864 30.7841ZM174.388 33V15.5455H185.74V18.196H177.549V22.9347H185.152V25.5852H177.549V30.3494H185.808V33H174.388ZM191.195 25.3295V33H188.109V19.9091H191.058V22.1335H191.212C191.513 21.4006 191.993 20.8182 192.652 20.3864C193.317 19.9545 194.138 19.7386 195.115 19.7386C196.018 19.7386 196.805 19.9318 197.476 20.3182C198.152 20.7045 198.675 21.2642 199.044 21.9972C199.419 22.7301 199.604 23.6193 199.598 24.6648V33H196.513V25.142C196.513 24.267 196.285 23.5824 195.831 23.0881C195.382 22.5937 194.76 22.3466 193.964 22.3466C193.425 22.3466 192.945 22.4659 192.524 22.7045C192.109 22.9375 191.783 23.2756 191.544 23.7188C191.311 24.1619 191.195 24.6989 191.195 25.3295ZM208.551 19.9091V22.2955H201.026V19.9091H208.551ZM202.884 16.7727H205.969V29.0625C205.969 29.4773 206.031 29.7955 206.156 30.017C206.287 30.233 206.457 30.3807 206.668 30.4602C206.878 30.5398 207.111 30.5795 207.367 30.5795C207.56 30.5795 207.736 30.5653 207.895 30.5369C208.06 30.5085 208.185 30.483 208.27 30.4602L208.79 32.8722C208.625 32.929 208.389 32.9915 208.082 33.0597C207.781 33.1278 207.412 33.1676 206.975 33.179C206.202 33.2017 205.506 33.0852 204.886 32.8295C204.267 32.5682 203.776 32.1648 203.412 31.6193C203.054 31.0739 202.878 30.392 202.884 29.5739V16.7727ZM216.066 33.2557C214.754 33.2557 213.62 32.983 212.666 32.4375C211.717 31.8864 210.987 31.108 210.475 30.1023C209.964 29.0909 209.708 27.9006 209.708 26.5312C209.708 25.1847 209.964 24.0028 210.475 22.9858C210.992 21.9631 211.714 21.1676 212.64 20.5994C213.566 20.0256 214.654 19.7386 215.904 19.7386C216.711 19.7386 217.473 19.8693 218.188 20.1307C218.91 20.3864 219.546 20.7841 220.098 21.3239C220.654 21.8636 221.092 22.5511 221.41 23.3864C221.728 24.2159 221.887 25.2045 221.887 26.3523V27.2983H211.157V25.2188H218.93C218.924 24.6278 218.796 24.1023 218.546 23.642C218.296 23.1761 217.947 22.8097 217.498 22.5426C217.055 22.2756 216.538 22.142 215.947 22.142C215.316 22.142 214.762 22.2955 214.285 22.6023C213.808 22.9034 213.436 23.3011 213.169 23.7955C212.907 24.2841 212.774 24.821 212.768 25.4062V27.2216C212.768 27.983 212.907 28.6364 213.186 29.1818C213.464 29.7216 213.853 30.1364 214.353 30.4261C214.853 30.7102 215.438 30.8523 216.109 30.8523C216.558 30.8523 216.964 30.7898 217.328 30.6648C217.691 30.5341 218.007 30.3438 218.274 30.0938C218.541 29.8438 218.742 29.5341 218.879 29.1648L221.759 29.4886C221.578 30.25 221.231 30.9148 220.72 31.483C220.214 32.0455 219.566 32.483 218.777 32.7955C217.987 33.1023 217.083 33.2557 216.066 33.2557ZM223.777 33V19.9091H226.769V22.0909H226.905C227.144 21.3352 227.553 20.7528 228.133 20.3438C228.718 19.929 229.385 19.7216 230.135 19.7216C230.306 19.7216 230.496 19.7301 230.706 19.7472C230.922 19.7585 231.101 19.7784 231.243 19.8068V22.6449C231.113 22.5994 230.905 22.5597 230.621 22.5256C230.343 22.4858 230.073 22.4659 229.812 22.4659C229.249 22.4659 228.743 22.5881 228.294 22.8324C227.851 23.071 227.502 23.4034 227.246 23.8295C226.99 24.2557 226.863 24.7472 226.863 25.304V33H223.777ZM232.573 37.9091V19.9091H235.607V22.0739H235.786C235.945 21.7557 236.17 21.4176 236.459 21.0597C236.749 20.696 237.141 20.3864 237.636 20.1307C238.13 19.8693 238.761 19.7386 239.528 19.7386C240.539 19.7386 241.451 19.9972 242.263 20.5142C243.082 21.0256 243.729 21.7841 244.207 22.7898C244.69 23.7898 244.931 25.017 244.931 26.4716C244.931 27.9091 244.695 29.1307 244.224 30.1364C243.752 31.142 243.11 31.9091 242.297 32.4375C241.485 32.9659 240.565 33.2301 239.536 33.2301C238.786 33.2301 238.164 33.1051 237.67 32.8551C237.175 32.6051 236.778 32.304 236.476 31.9517C236.181 31.5937 235.951 31.2557 235.786 30.9375H235.658V37.9091H232.573ZM235.599 26.4545C235.599 27.3011 235.718 28.0426 235.957 28.679C236.201 29.3153 236.55 29.8125 237.005 30.1705C237.465 30.5227 238.022 30.6989 238.675 30.6989C239.357 30.6989 239.928 30.517 240.388 30.1534C240.849 29.7841 241.195 29.2812 241.428 28.6449C241.667 28.0028 241.786 27.2727 241.786 26.4545C241.786 25.642 241.67 24.9205 241.437 24.2898C241.204 23.6591 240.857 23.1648 240.397 22.8068C239.937 22.4489 239.363 22.2699 238.675 22.2699C238.016 22.2699 237.457 22.4432 236.996 22.7898C236.536 23.1364 236.187 23.6222 235.948 24.2472C235.715 24.8722 235.599 25.608 235.599 26.4545ZM246.853 33V19.9091H249.845V22.0909H249.981C250.22 21.3352 250.629 20.7528 251.208 20.3438C251.793 19.929 252.461 19.7216 253.211 19.7216C253.381 19.7216 253.572 19.7301 253.782 19.7472C253.998 19.7585 254.177 19.7784 254.319 19.8068V22.6449C254.188 22.5994 253.981 22.5597 253.697 22.5256C253.418 22.4858 253.148 22.4659 252.887 22.4659C252.325 22.4659 251.819 22.5881 251.37 22.8324C250.927 23.071 250.577 23.4034 250.322 23.8295C250.066 24.2557 249.938 24.7472 249.938 25.304V33H246.853ZM255.649 33V19.9091H258.734V33H255.649ZM257.2 18.0511C256.711 18.0511 256.291 17.8892 255.938 17.5653C255.586 17.2358 255.41 16.8409 255.41 16.3807C255.41 15.9148 255.586 15.5199 255.938 15.196C256.291 14.8665 256.711 14.7017 257.2 14.7017C257.694 14.7017 258.115 14.8665 258.461 15.196C258.813 15.5199 258.99 15.9148 258.99 16.3807C258.99 16.8409 258.813 17.2358 258.461 17.5653C258.115 17.8892 257.694 18.0511 257.2 18.0511ZM271.533 23.3693L268.721 23.6761C268.641 23.392 268.502 23.125 268.303 22.875C268.11 22.625 267.848 22.4233 267.519 22.2699C267.189 22.1165 266.786 22.0398 266.309 22.0398C265.667 22.0398 265.127 22.179 264.689 22.4574C264.257 22.7358 264.044 23.0966 264.05 23.5398C264.044 23.9205 264.184 24.2301 264.468 24.4688C264.757 24.7074 265.235 24.9034 265.9 25.0568L268.132 25.5341C269.371 25.8011 270.292 26.2244 270.894 26.804C271.502 27.3835 271.809 28.142 271.814 29.0795C271.809 29.9034 271.567 30.6307 271.09 31.2614C270.618 31.8864 269.962 32.375 269.121 32.7273C268.28 33.0795 267.314 33.2557 266.223 33.2557C264.621 33.2557 263.331 32.9205 262.354 32.25C261.377 31.5739 260.794 30.6335 260.607 29.429L263.615 29.1392C263.752 29.7301 264.042 30.1761 264.485 30.4773C264.928 30.7784 265.505 30.929 266.215 30.929C266.948 30.929 267.536 30.7784 267.979 30.4773C268.428 30.1761 268.652 29.804 268.652 29.3608C268.652 28.9858 268.507 28.6761 268.218 28.4318C267.934 28.1875 267.49 28 266.888 27.8693L264.655 27.4006C263.4 27.1392 262.471 26.6989 261.868 26.0795C261.266 25.4545 260.968 24.6648 260.973 23.7102C260.968 22.9034 261.186 22.2045 261.63 21.6136C262.079 21.017 262.701 20.5568 263.496 20.233C264.297 19.9034 265.221 19.7386 266.266 19.7386C267.8 19.7386 269.007 20.0653 269.888 20.7188C270.775 21.3722 271.323 22.2557 271.533 23.3693ZM279.434 33.2557C278.121 33.2557 276.988 32.983 276.033 32.4375C275.084 31.8864 274.354 31.108 273.843 30.1023C273.332 29.0909 273.076 27.9006 273.076 26.5312C273.076 25.1847 273.332 24.0028 273.843 22.9858C274.36 21.9631 275.082 21.1676 276.008 20.5994C276.934 20.0256 278.022 19.7386 279.272 19.7386C280.079 19.7386 280.84 19.8693 281.556 20.1307C282.278 20.3864 282.914 20.7841 283.465 21.3239C284.022 21.8636 284.459 22.5511 284.778 23.3864C285.096 24.2159 285.255 25.2045 285.255 26.3523V27.2983H274.525V25.2188H282.297C282.292 24.6278 282.164 24.1023 281.914 23.642C281.664 23.1761 281.314 22.8097 280.866 22.5426C280.422 22.2756 279.905 22.142 279.314 22.142C278.684 22.142 278.13 22.2955 277.653 22.6023C277.175 22.9034 276.803 23.3011 276.536 23.7955C276.275 24.2841 276.141 24.821 276.136 25.4062V27.2216C276.136 27.983 276.275 28.6364 276.553 29.1818C276.832 29.7216 277.221 30.1364 277.721 30.4261C278.221 30.7102 278.806 30.8523 279.476 30.8523C279.925 30.8523 280.332 30.7898 280.695 30.6648C281.059 30.5341 281.374 30.3438 281.641 30.0938C281.908 29.8438 282.11 29.5341 282.246 29.1648L285.127 29.4886C284.945 30.25 284.599 30.9148 284.087 31.483C283.582 32.0455 282.934 32.483 282.144 32.7955C281.354 33.1023 280.451 33.2557 279.434 33.2557Z" fill="white"/>
</g>
<defs>
<filter id="filter0_d_0_14" x="0" y="0" width="307" height="56" filterUnits="userSpaceOnUse" color-interpolation-filters="sRGB">
<feFlood flood-opacity="0" result="BackgroundImageFix"/>
<feColorMatrix in="SourceAlpha" type="matrix" values="0 0 0 0 0 0 0 0 0 0 0 0 0 0 0 0 0 0 127 0" result="hardAlpha"/>
<feOffset dy="4"/>
<feGaussianBlur stdDeviation="2"/>
<feComposite in2="hardAlpha" operator="out"/>
<feColorMatrix type="matrix" values="0 0 0 0 0 0 0 0 0 0 0 0 0 0 0 0 0 0 0.25 0"/>
<feBlend mode="normal" in2="BackgroundImageFix" result="effect1_dropShadow_0_14"/>
<feBlend mode="normal" in="SourceGraphic" in2="effect1_dropShadow_0_14" result="shape"/>
</filter>
<linearGradient id="paint0_linear_0_14" x1="-2.90136" y1="12.8572" x2="307.507" y2="-18.0184" gradientUnits="userSpaceOnUse">
<stop stop-color="#E1986D"/>
<stop offset="0.9999" stop-color="#7759C2"/>
<stop offset="1" stop-color="#6E43D3"/>
</linearGradient>
<linearGradient id="paint1_linear_0_14" x1="11.6001" y1="15.8711" x2="11.9217" y2="36.8847" gradientUnits="userSpaceOnUse">
<stop stop-color="#E1986D"/>
<stop offset="0.9999" stop-color="#7759C2"/>
<stop offset="1" stop-color="#6E43D3"/>
</linearGradient>
</defs>
</svg>
