<svg width="131" height="57" viewBox="0 0 131 57" fill="none" xmlns="http://www.w3.org/2000/svg">
<path fill-rule="evenodd" clip-rule="evenodd" d="M121.133 26.2142H116.046V4.95303H120.866V7.31538C121.49 5.89797 123.008 4.57505 124.882 4.48055C128.184 4.29157 130.416 6.37044 130.416 10.8117V26.2142H125.15V10.1502C125.15 8.26033 125.15 6.65392 123.989 6.37044C123.543 6.18145 122.829 6.37044 122.204 6.84291C121.49 7.59887 121.133 8.6383 121.133 10.1502C121.133 10.5282 121.133 26.2142 121.133 26.2142" fill="#171321"/>
<path fill-rule="evenodd" clip-rule="evenodd" d="M34.2802 6.34301C33.1199 5.20908 31.6026 4.45312 29.8175 4.45312C28.0325 4.45312 26.6937 5.20908 25.3549 6.34301C23.2128 8.23289 21.874 11.7292 21.874 15.6034C21.874 19.5722 23.2128 22.8795 25.3549 24.8638C26.6937 25.9978 28.0325 26.7537 29.8175 26.7537C31.6026 26.7537 33.1199 25.9978 34.2802 24.8638C36.5115 22.974 37.7611 19.5722 37.7611 15.6034C37.7611 11.7292 36.5115 8.23289 34.2802 6.34301V6.34301ZM32.3166 15.6034C32.3166 19.5722 32.3166 22.785 31.6919 24.3914C31.2456 25.1473 30.7993 25.6198 29.7283 25.6198C28.8358 25.6198 28.211 25.1473 27.9432 24.3914C27.2292 22.785 27.2292 19.6667 27.2292 15.6034C27.2292 11.8237 27.2292 8.42188 27.9432 6.81548C28.211 6.05952 28.8358 5.58705 29.7283 5.58705C30.7993 5.58705 31.2456 6.05952 31.6919 6.81548C32.4951 8.42188 32.3166 11.7292 32.3166 15.6034" fill="#171321"/>
<path fill-rule="evenodd" clip-rule="evenodd" d="M86.673 34.3523V40.1165H85.6912C85.0664 37.6596 84.1739 35.5807 81.7641 35.4862C80.2468 35.2972 78.908 36.2422 78.7295 37.7541C78.551 39.1715 78.9972 40.4944 81.7641 42.0063C85.245 44.0852 87.9225 45.0302 87.9225 49.2824C87.9225 53.9126 84.1739 56.086 81.0501 56.086C79.7113 56.086 75.0701 56.086 75.0701 56.086V48.1485H76.1411C76.8552 52.3062 78.1047 54.8576 80.9608 54.9521C82.7459 54.9521 84.0847 53.8181 84.0847 51.7393C84.0847 49.6604 82.8351 48.5265 79.979 46.7311C76.8552 44.6522 74.8916 43.4238 74.8916 40.4944C74.8916 36.7147 77.4799 34.2578 81.4963 34.2578C82.8351 34.3523 86.673 34.3523 86.673 34.3523" fill="#171321"/>
<path fill-rule="evenodd" clip-rule="evenodd" d="M93.2947 26.218V10.8155C93.2947 6.37433 91.0633 4.29547 87.761 4.48445C85.5297 4.67344 84.1909 6.27983 83.5661 7.50825C82.8521 5.2404 81.1563 4.29547 78.7464 4.48445C76.7829 4.67344 75.2655 5.90186 74.73 7.31927V4.95692H70.0889V26.218H75.1763C75.1763 26.218 75.1763 10.6265 75.1763 10.1541C75.1763 8.54768 75.3548 7.60275 76.2473 6.8468C76.8721 6.37433 77.4076 6.18534 77.9431 6.37433C79.1034 6.65781 79.1034 8.2642 79.1034 10.1541V26.218H84.1909V10.0596C84.1909 8.64218 84.4586 7.69724 85.2619 6.8468C85.8867 6.37433 86.4222 6.18534 86.9577 6.37433C88.118 6.65781 88.2965 8.2642 88.2965 10.1541V26.218H93.2947" fill="#171321"/>
<path fill-rule="evenodd" clip-rule="evenodd" d="M41.251 0.476562H46.5169V26.2734H41.251V0.476562Z" fill="#171321"/>
<path fill-rule="evenodd" clip-rule="evenodd" d="M65.0721 26.2733V0.476562H59.8062V6.52416C59.3599 5.39024 58.2889 4.63429 56.7716 4.63429C53.1122 4.63429 50.0776 8.79201 49.8991 15.1231C49.7206 19.3753 51.0594 26.5568 56.3253 26.5568C58.4674 26.5568 59.6277 25.3284 60.0739 24.1945V26.2733H65.0721V26.2733ZM58.9136 6.71315C59.9847 8.31954 59.9847 12.0993 59.9847 15.1231C59.9847 18.3359 60.1632 22.3991 58.9136 24.1945C58.4674 24.8559 58.0211 25.1394 57.2178 25.1394C56.1468 25.1394 55.522 23.911 55.2543 21.8321C55.0758 19.9423 55.0758 17.5799 55.0758 15.0286C55.0758 10.7764 55.3435 5.9572 57.3071 5.9572C58.1996 5.8627 58.4674 6.24068 58.9136 6.71315" fill="#171321"/>
<path fill-rule="evenodd" clip-rule="evenodd" d="M108.96 5.58779C110.298 6.34374 111.191 7.66666 111.191 10.5015V26.2819H106.282V23.9196C105.657 25.715 104.051 26.7544 101.819 26.7544C100.034 26.7544 96.8213 25.8095 96.8213 20.8958C96.8213 16.2656 99.6774 15.3206 102.801 13.9032C105.657 12.5803 105.925 12.3913 105.925 11.1629C105.925 10.029 105.925 9.08406 105.925 7.66666C105.925 6.24925 105.211 5.58779 103.694 5.58779C103.069 5.77678 101.998 6.06026 101.998 6.81621C101.819 7.76115 102.89 7.76115 103.069 9.17856C103.247 11.4464 101.552 12.2024 100.034 12.0134C98.9634 12.0134 97.8031 11.3519 97.6246 9.65102C97.4461 6.81621 100.481 4.35938 104.676 4.35938C106.728 4.45387 107.889 4.92634 108.96 5.58779V5.58779ZM105.925 13.5253L104.319 14.6592C102.623 15.7931 102.355 17.2105 102.176 18.8169C101.998 20.0453 101.998 21.1793 102.176 23.0691C102.355 24.8645 103.337 25.148 104.319 24.8645C105.39 24.3921 106.014 22.3132 106.014 20.1398C105.925 20.0453 105.925 14.2812 105.925 13.5253Z" fill="#171321"/>
<path fill-rule="evenodd" clip-rule="evenodd" d="M34.614 35.2965C35.9528 36.2415 36.6668 37.3754 36.6668 40.2102V56.0853H31.9364V53.7229C31.3116 55.3293 29.7051 56.4633 27.4738 56.4633C25.5102 56.4633 22.4756 55.7073 22.4756 50.6991C22.4756 46.0689 25.3317 45.1239 28.3663 43.7065C31.3116 42.2891 31.5794 42.1001 31.5794 41.0607C31.5794 39.9267 31.5794 38.9818 31.5794 37.5644C31.5794 35.958 30.8654 35.2965 29.3481 35.4855C28.7233 35.4855 27.6523 35.769 27.6523 36.6194C27.4738 37.7534 28.5448 37.7534 28.7233 39.1708C28.9018 41.2497 27.206 42.0056 25.6887 42.0056C24.6177 41.8166 23.4574 41.2497 23.2789 39.4543C23.1896 36.7139 26.2242 34.3516 30.4191 34.3516C32.3827 34.3516 33.543 34.635 34.614 35.2965V35.2965ZM31.5794 43.234L29.8836 44.368C28.277 45.5019 28.0093 46.9193 27.8308 48.5257C27.6523 49.7542 27.6523 51.0771 27.8308 52.778C27.8308 54.6679 28.9018 55.0458 29.7943 54.5734C30.9546 54.1009 31.5794 52.211 31.5794 49.8486C31.5794 49.7542 31.5794 44.0845 31.5794 43.234" fill="#171321"/>
<path fill-rule="evenodd" clip-rule="evenodd" d="M70.9027 40.6998C70.9027 36.2586 68.6713 33.9907 65.369 34.3687C63.6732 34.5577 62.3344 35.3136 61.6203 36.4476V30.2109H56.5329V44.8575C56.5329 50.2437 52.9628 55.3464 49.3034 55.1574C46.7151 55.1574 46.1796 53.0785 45.8225 50.9052C45.3763 47.6924 45.3763 44.0071 45.7333 40.0383C46.0011 37.487 46.6258 35.4081 48.4109 35.4081C49.7497 35.4081 49.9282 36.3531 49.3034 37.0145C48.6786 37.865 47.7861 38.6209 48.2324 40.4163C48.6786 42.3062 51.5347 42.6842 52.8735 41.1723C53.9446 39.9438 53.7661 37.865 53.052 36.542C52.1595 34.9356 50.6422 34.2742 48.4109 34.2742C45.5548 34.2742 40.1104 37.0145 40.1104 45.519C40.1104 54.7794 45.644 56.2913 48.8572 56.2913C52.4273 56.2913 55.6404 52.984 56.5329 50.2437V56.0078H61.6203V39.9438C61.6203 38.3374 61.8881 37.3925 62.6914 36.6365C63.3162 36.1641 64.0302 35.9751 64.4764 36.1641C65.6367 36.4476 65.6367 38.054 65.6367 39.9438V56.0078H70.9027V40.6998" fill="#171321"/>
<path fill-rule="evenodd" clip-rule="evenodd" d="M18.3659 0V9.07144H17.2948C16.4023 4.63021 14.4387 1.22842 11.7612 1.13393C9.97609 0.944941 8.90506 2.07887 8.01253 3.68527C7.12 5.57515 6.67373 9.54391 6.67373 14.3631C6.67373 18.8043 6.85224 22.1116 7.2985 24.5685C7.56626 25.7024 8.36954 27.4033 10.3331 27.4033C11.4041 27.4033 12.1182 27.1198 12.5644 26.4584C13.2785 25.5134 13.457 23.6235 13.457 22.3006C13.457 20.2217 13.457 19.5603 13.457 18.0484C13.457 16.5365 13.0107 15.4025 12.2074 14.9301C11.5826 14.6466 10.6901 14.6466 10.2439 14.4576V13.3237H18.6336V36.0968H17.5626C17.1163 34.3014 16.8486 33.0729 16.0453 31.6555C15.3313 30.2381 13.9925 28.6317 11.7612 28.6317C9.35132 28.4427 7.56626 30.0491 7.56626 32.4115C7.56626 35.6243 9.35132 36.3802 12.6537 38.2701C15.7775 40.16 19.8832 41.7664 19.8832 47.3416C19.8832 52.7277 15.5098 56.1295 10.6009 56.1295C9.52983 56.1295 2.65735 56.1295 2.65735 56.1295V45.1682H3.72838C5.06718 53.4837 8.36954 54.9011 10.6009 54.9011C13.457 54.9011 14.7958 53.0112 14.7958 50.2709C14.6173 46.7746 12.3859 45.5462 9.26207 43.7508C4.79942 41.0105 2.65735 39.782 2.65735 35.3408C2.83585 31.561 5.69195 29.1042 8.8158 28.1593C2.21108 27.4033 0.247515 20.9777 0.426021 14.1741C0.426021 7.37054 4.17465 0 11.5826 0C14.7958 0 18.3659 0 18.3659 0Z" fill="#171321"/>
</svg>
