<svg width="458" height="398" viewBox="0 0 458 398" fill="none" xmlns="http://www.w3.org/2000/svg">
<g clip-path="url(#clip0_1387_190)">
<g clip-path="url(#clip1_1387_190)">
<path d="M317.773 112.888L317.324 115.343C317.178 116.142 316.55 116.762 315.759 116.909L313.306 117.358C312.874 117.439 312.874 118.059 313.306 118.133L315.759 118.581C316.558 118.728 317.178 119.356 317.324 120.147L317.773 122.602C317.854 123.035 318.474 123.035 318.547 122.602L318.995 120.147C319.142 119.348 319.769 118.728 320.56 118.581L323.013 118.133C323.445 118.051 323.445 117.431 323.013 117.358L320.56 116.909C319.761 116.762 319.142 116.134 318.995 115.343L318.547 112.888C318.465 112.455 317.846 112.455 317.773 112.888Z" fill="url(#paint0_linear_1387_190)"/>
<path opacity="0.6" d="M247.601 262.361L246.697 266.366C246.403 267.668 245.154 268.687 243.558 268.926L238.648 269.664C237.784 269.794 237.784 270.804 238.648 270.934L243.558 271.671C245.154 271.911 246.404 272.93 246.697 274.232L247.601 278.237C247.76 278.941 248.999 278.941 249.158 278.237L250.062 274.232C250.356 272.93 251.605 271.91 253.201 271.671L258.111 270.934C258.975 270.804 258.975 269.794 258.111 269.664L253.201 268.926C251.605 268.687 250.355 267.668 250.062 266.366L249.158 262.361C248.999 261.656 247.76 261.656 247.601 262.361Z" fill="url(#paint1_linear_1387_190)"/>
<path d="M213.961 153.347C196.266 172.296 197.269 202.117 216.203 219.825C235.137 237.534 264.935 236.522 282.63 217.582L213.961 153.347Z" fill="url(#paint2_linear_1387_190)"/>
<path opacity="0.9" d="M27.7119 28.9953L27.7119 16.6736L105.985 16.6736L105.985 28.9953L27.7119 28.9953Z" fill="url(#paint3_linear_1387_190)"/>
<path opacity="0.4" d="M53.4434 29.3643L59.9638 22.8389L53.4434 16.3135" fill="#A686F2"/>
<path opacity="0.7" d="M63.5884 29.3643L70.1088 22.8389L63.5884 16.3135" fill="#A686F2"/>
<path d="M73.7334 29.3643L80.2539 22.8389L73.7334 16.3135" fill="#A686F2"/>
<path opacity="0.7" d="M445.39 73.4111L457.702 73.4111L457.702 151.744L445.39 151.744L445.39 73.4111Z" fill="url(#paint4_linear_1387_190)"/>
<path opacity="0.4" d="M445.021 99.1621L451.542 105.688L458.062 99.1621" fill="#FFC783"/>
<path opacity="0.7" d="M445.021 109.315L451.542 115.84L458.062 109.315" fill="#FFC783"/>
<path d="M445.021 119.468L451.542 125.993L458.062 119.468" fill="#FFC783"/>
<path d="M92.3436 155.505L91.61 159.51C91.3737 160.815 90.3548 161.835 89.0508 162.071L85.0488 162.805C84.3479 162.936 84.3479 163.947 85.0488 164.078L89.0508 164.812C90.3548 165.048 91.3737 166.068 91.61 167.373L92.3436 171.378C92.474 172.079 93.4847 172.079 93.6151 171.378L94.3486 167.373C94.585 166.068 95.6038 165.048 96.9079 164.812L100.91 164.078C101.611 163.947 101.611 162.936 100.91 162.805L96.9079 162.071C95.6038 161.835 94.585 160.815 94.3486 159.51L93.6151 155.505C93.4847 154.803 92.474 154.803 92.3436 155.505Z" fill="url(#paint5_linear_1387_190)"/>
<path d="M71.6251 183.336L71.1769 185.791C71.0301 186.591 70.4026 187.21 69.6119 187.357L67.1586 187.806C66.7266 187.887 66.7266 188.507 67.1586 188.581L69.6119 189.029C70.4107 189.176 71.0301 189.804 71.1769 190.595L71.6251 193.051C71.7066 193.483 72.3261 193.483 72.3994 193.051L72.8477 190.595C72.9944 189.796 73.622 189.176 74.4126 189.029L76.866 188.581C77.2979 188.499 77.2979 187.879 76.866 187.806L74.4126 187.357C73.6139 187.21 72.9944 186.582 72.8477 185.791L72.3994 183.336C72.3179 182.904 71.6985 182.904 71.6251 183.336Z" fill="url(#paint6_linear_1387_190)"/>
<path d="M221.624 231.053C243.076 243.368 270.979 240.366 289.285 222.046C311.179 200.136 311.179 164.486 289.285 142.576C278.338 131.621 263.959 126.143 249.58 126.143" stroke="url(#paint7_linear_1387_190)" stroke-width="14.3377" stroke-miterlimit="10" stroke-dasharray="2.39 7.17"/>
<path opacity="0.35" d="M249.408 304.656C182.111 304.656 127.557 250.06 127.557 182.712C127.557 115.364 182.111 60.7681 249.408 60.7681C316.704 60.7681 371.259 115.364 371.259 182.712C371.259 250.06 316.704 304.656 249.408 304.656Z" stroke="url(#paint8_linear_1387_190)" stroke-width="23" stroke-miterlimit="10"/>
<path opacity="0.15" d="M249.407 332.797C166.581 332.797 99.4369 265.601 99.4369 182.712C99.4369 99.8224 166.581 32.6272 249.407 32.6272C332.234 32.6272 399.378 99.8224 399.378 182.712C399.378 265.601 332.234 332.797 249.407 332.797Z" stroke="url(#paint9_linear_1387_190)" stroke-width="46" stroke-miterlimit="10"/>
<path d="M216.197 101.822C193.551 110.069 175.422 127.797 166.631 150.191" stroke="url(#paint10_linear_1387_190)" stroke-width="9.86407" stroke-miterlimit="10" stroke-dasharray="3.29 6.58"/>
<path opacity="0.8" d="M304.166 240.212C319.361 224.992 328.781 203.992 328.781 180.82C328.781 146.075 307.596 116.184 277.474 103.405" stroke="url(#paint11_linear_1387_190)" stroke-width="4.93204" stroke-miterlimit="10" stroke-dasharray="6.58 6.58"/>
<path opacity="0.3" d="M19 56H380.076C401.021 56 418 72.9978 418 93.9654L417.975 144.91C417.975 165.877 400.996 182.875 380.051 182.875H141.958C121.013 182.875 104.034 199.873 104.034 220.84V749.923C104.034 770.891 121.013 787.888 141.958 787.888L271.872 788" stroke="url(#paint12_linear_1387_190)" stroke-width="20" stroke-miterlimit="10" stroke-linecap="round"/>
<path d="M19 56H380.076C401.021 56 418 72.9978 418 93.9654L417.975 144.91C417.975 165.877 400.996 182.875 380.051 182.875H141.958C121.013 182.875 104.034 199.873 104.034 220.84V749.923C104.034 770.891 121.013 787.888 141.958 787.888L271.872 788" stroke="white" stroke-width="2" stroke-miterlimit="10" stroke-linecap="round"/>
<path d="M249.131 217.231C229.927 217.231 214.36 201.652 214.36 182.435C214.36 163.217 229.927 147.638 249.131 147.638C268.334 147.638 283.901 163.217 283.901 182.435C283.901 201.652 268.334 217.231 249.131 217.231Z" fill="#2B2838"/>
<path d="M248.87 217.231C229.667 217.231 214.099 201.652 214.099 182.435C214.099 163.217 229.667 147.638 248.87 147.638C268.073 147.638 283.64 163.217 283.64 182.435C283.64 201.652 268.073 217.231 248.87 217.231Z" stroke="url(#paint13_linear_1387_190)" stroke-width="2" stroke-miterlimit="10"/>
<path d="M268.332 177.231L262.866 162.927C262.866 162.927 262.599 162.397 262.332 162.265C262.066 162.132 261.799 162 261.533 162C261.266 162 260.999 162 260.733 162.265C260.466 162.397 260.333 162.662 260.199 163.06L256.466 174.318H241.535L237.802 163.06C237.802 163.06 237.535 162.53 237.268 162.265C237.002 162.132 236.735 162 236.468 162C236.202 162 235.802 162 235.669 162.265C235.402 162.397 235.269 162.662 235.135 162.927L229.669 177.099C228.069 181.47 229.403 186.238 233.002 188.887L241.268 195.112L245.401 198.158L247.934 200.013C247.934 200.013 249.4 200.41 249.934 200.013L252.467 198.158L256.6 195.112L264.999 188.887C268.598 186.105 269.932 181.47 268.332 177.231Z" fill="white"/>
<path opacity="0.6" d="M139.281 82.7078L138.829 85.1622C138.682 85.9599 138.058 86.5847 137.261 86.7315L134.808 87.1834C134.377 87.2633 134.377 87.8824 134.808 87.9616L137.261 88.4134C138.058 88.5603 138.682 89.1851 138.829 89.9828L139.281 92.4372C139.361 92.8695 139.979 92.8695 140.058 92.4372L140.51 89.9828C140.657 89.1851 141.281 88.5603 142.078 88.4134L144.531 87.9616C144.962 87.8816 144.962 87.2625 144.531 87.1834L142.078 86.7315C141.281 86.5847 140.657 85.9599 140.51 85.1622L140.058 82.7078C139.979 82.2755 139.36 82.2755 139.281 82.7078Z" fill="url(#paint14_linear_1387_190)"/>
</g>
<g clip-path="url(#clip2_1387_190)">
<path opacity="0.3" d="M104 385L104 23.9237C104 2.97922 120.998 -14 141.965 -14L192.91 -13.975C213.877 -13.975 230.875 3.00423 230.875 23.9487L230.875 262.042C230.875 282.987 247.873 299.966 268.84 299.966L797.923 299.966C818.891 299.966 835.888 282.987 835.888 262.042L836 132.128" stroke="url(#paint15_linear_1387_190)" stroke-width="20" stroke-miterlimit="10" stroke-linecap="round"/>
<path d="M104 385L104 23.9237C104 2.97922 120.998 -14 141.965 -14L192.91 -13.975C213.877 -13.975 230.875 3.00423 230.875 23.9487L230.875 262.042C230.875 282.987 247.873 299.966 268.84 299.966L797.923 299.966C818.891 299.966 835.888 282.987 835.888 262.042L836 132.128" stroke="white" stroke-width="2" stroke-miterlimit="10" stroke-linecap="round"/>
</g>
</g>
<defs>
<linearGradient id="paint0_linear_1387_190" x1="320.837" y1="120.433" x2="315.478" y2="115.078" gradientUnits="userSpaceOnUse">
<stop stop-color="#DF4329" stop-opacity="0.9"/>
<stop offset="0.786458" stop-color="#A686F2"/>
</linearGradient>
<linearGradient id="paint1_linear_1387_190" x1="253.739" y1="274.671" x2="245.175" y2="264.172" gradientUnits="userSpaceOnUse">
<stop offset="0.2358" stop-color="#A686F2"/>
<stop offset="0.3904" stop-color="#A382F0" stop-opacity="0.9779"/>
<stop offset="0.5326" stop-color="#9A77EB" stop-opacity="0.9575"/>
<stop offset="0.67" stop-color="#8A65E3" stop-opacity="0.9379"/>
<stop offset="0.8036" stop-color="#744AD7" stop-opacity="0.9188"/>
<stop offset="0.9349" stop-color="#5829C8" stop-opacity="0.9"/>
</linearGradient>
<linearGradient id="paint2_linear_1387_190" x1="265.473" y1="234.785" x2="198.979" y2="168.341" gradientUnits="userSpaceOnUse">
<stop stop-color="#7759BF" stop-opacity="0"/>
<stop offset="0.14" stop-color="#8263CB" stop-opacity="0.12"/>
<stop offset="0.42" stop-color="#9576E0" stop-opacity="0.32"/>
<stop offset="0.62" stop-color="#A181ED" stop-opacity="0.45"/>
<stop offset="0.74" stop-color="#A686F2" stop-opacity="0.5"/>
</linearGradient>
<linearGradient id="paint3_linear_1387_190" x1="105.985" y1="22.8391" x2="27.7119" y2="22.839" gradientUnits="userSpaceOnUse">
<stop stop-color="#A686F2" stop-opacity="0"/>
<stop offset="0.333333" stop-color="#A686F2" stop-opacity="0.6"/>
<stop offset="0.666667" stop-color="#7759BF" stop-opacity="0.6"/>
<stop offset="1" stop-color="#7759BF" stop-opacity="0"/>
</linearGradient>
<linearGradient id="paint4_linear_1387_190" x1="451.541" y1="151.744" x2="451.541" y2="73.4111" gradientUnits="userSpaceOnUse">
<stop stop-color="#FFC783" stop-opacity="0"/>
<stop offset="0.333333" stop-color="#FFC783" stop-opacity="0.6"/>
<stop offset="0.666667" stop-color="#F9A026" stop-opacity="0.6"/>
<stop offset="1" stop-color="#F9A026" stop-opacity="0"/>
</linearGradient>
<linearGradient id="paint5_linear_1387_190" x1="101.44" y1="163.441" x2="84.519" y2="163.441" gradientUnits="userSpaceOnUse">
<stop offset="0.33" stop-color="#10AEAE" stop-opacity="0.61"/>
<stop offset="0.43" stop-color="#1CB3B1" stop-opacity="0.66"/>
<stop offset="0.63" stop-color="#3BC0B9" stop-opacity="0.79"/>
<stop offset="0.91" stop-color="#6FD7C6"/>
</linearGradient>
<linearGradient id="paint6_linear_1387_190" x1="74.6898" y1="190.881" x2="69.3307" y2="185.526" gradientUnits="userSpaceOnUse">
<stop offset="0.33" stop-color="#10AEAE" stop-opacity="0.61"/>
<stop offset="0.43" stop-color="#1CB3B1" stop-opacity="0.66"/>
<stop offset="0.63" stop-color="#3BC0B9" stop-opacity="0.79"/>
<stop offset="0.91" stop-color="#6FD7C6"/>
</linearGradient>
<linearGradient id="paint7_linear_1387_190" x1="213.688" y1="231.092" x2="299.909" y2="144.937" gradientUnits="userSpaceOnUse">
<stop offset="0.325" stop-color="#10AEAE" stop-opacity="0.61"/>
<stop offset="0.9096" stop-color="#6FD7C6"/>
</linearGradient>
<linearGradient id="paint8_linear_1387_190" x1="374.116" y1="182.712" x2="124.7" y2="182.712" gradientUnits="userSpaceOnUse">
<stop offset="0.325" stop-color="#10AEAE" stop-opacity="0.61"/>
<stop offset="0.9096" stop-color="#6FD7C6"/>
</linearGradient>
<linearGradient id="paint9_linear_1387_190" x1="402.895" y1="182.712" x2="95.921" y2="182.712" gradientUnits="userSpaceOnUse">
<stop offset="0.325" stop-color="#10AEAE" stop-opacity="0.61"/>
<stop offset="0.9096" stop-color="#6FD7C6"/>
</linearGradient>
<linearGradient id="paint10_linear_1387_190" x1="217.577" y1="124.847" x2="162.893" y2="124.847" gradientUnits="userSpaceOnUse">
<stop offset="0.44" stop-color="#DF4329" stop-opacity="0.9"/>
<stop offset="0.91" stop-color="#A686F2"/>
</linearGradient>
<linearGradient id="paint11_linear_1387_190" x1="330.791" y1="171.594" x2="276.683" y2="171.594" gradientUnits="userSpaceOnUse">
<stop offset="0.33" stop-color="#10AEAE" stop-opacity="0.61"/>
<stop offset="0.43" stop-color="#1CB3B1" stop-opacity="0.66"/>
<stop offset="0.63" stop-color="#3BC0B9" stop-opacity="0.79"/>
<stop offset="0.91" stop-color="#6FD7C6"/>
</linearGradient>
<linearGradient id="paint12_linear_1387_190" x1="349.738" y1="368.848" x2="19.0007" y2="368.848" gradientUnits="userSpaceOnUse">
<stop stop-color="#F9A026"/>
<stop offset="0.4241" stop-color="#A686F2"/>
<stop offset="0.7708" stop-color="#7759BF"/>
</linearGradient>
<linearGradient id="paint13_linear_1387_190" x1="248.5" y1="147.496" x2="248.5" y2="216.828" gradientUnits="userSpaceOnUse">
<stop stop-color="#A686F2"/>
<stop offset="0.854167" stop-color="#5829C8"/>
</linearGradient>
<linearGradient id="paint14_linear_1387_190" x1="142.347" y1="90.2521" x2="136.989" y2="84.8982" gradientUnits="userSpaceOnUse">
<stop offset="0.2358" stop-color="#A686F2"/>
<stop offset="0.3904" stop-color="#A382F0" stop-opacity="0.9779"/>
<stop offset="0.5326" stop-color="#9A77EB" stop-opacity="0.9575"/>
<stop offset="0.67" stop-color="#8A65E3" stop-opacity="0.9379"/>
<stop offset="0.8036" stop-color="#744AD7" stop-opacity="0.9188"/>
<stop offset="0.9349" stop-color="#5829C8" stop-opacity="0.9"/>
</linearGradient>
<linearGradient id="paint15_linear_1387_190" x1="416.848" y1="54.2623" x2="416.848" y2="384.999" gradientUnits="userSpaceOnUse">
<stop stop-color="#F9A026"/>
<stop offset="0.4241" stop-color="#A686F2"/>
<stop offset="0.7708" stop-color="#7759BF"/>
</linearGradient>
<clipPath id="clip0_1387_190">
<rect width="458" height="398" fill="white"/>
</clipPath>
<clipPath id="clip1_1387_190">
<rect width="498" height="368" fill="white"/>
</clipPath>
<clipPath id="clip2_1387_190">
<rect width="36" height="368" fill="white" transform="translate(48 404) rotate(-90)"/>
</clipPath>
</defs>
</svg>
