<svg xmlns="http://www.w3.org/2000/svg" viewBox="0 0 94 122"><path fill="#fff" d="M8.1 89.9 47.6 110l38-20.1V11.3H8.1z"/><path fill="#f2f3f2" d="M86.4 11.6 7.3 91.3l41 20.3 38.1-19.5z"/><path fill="#dcdedc" d="M5.5 37.5v54.1l1.4.7 39.5 20.1 1.2.6 1.2-.6 38.1-20.1 1.4-.7V8.7H5.5v28.8zm2.6 52.6V11.3h77.6v78.8l-38.1 20.1L8.1 90.1z"/><path fill="#ff492c" d="M46.9 12.6c.4 0 .8 0 1.2.1L46.9 15c-1.8-.1-3.4 1.3-3.5 3.1-.1 1.8 1.3 3.4 3.1 3.5h.4c.8 0 1.6-.3 2.2-.8l1.3 2.2c-1 .7-2.2 1.1-3.5 1.1-3.2.1-5.9-2.3-6-5.5-.1-3.2 2.3-5.9 5.5-6h.5zm4.1 4.9 1.5 2.5-1.5 2.4-1.4-2.4h-2.9l1.5-2.5H51zm-2.4-.9c0-.4.1-.8.3-1.1.2-.3.6-.6.9-.8l.2-.1c.4-.2.5-.3.5-.5s-.3-.4-.5-.4c-.4 0-.7.2-.9.6l-.5-.5c.1-.2.3-.4.5-.6.3-.2.6-.2.9-.2.3 0 .7.1.9.3.2.2.4.5.4.8 0 .5-.3.9-.9 1.1l-.3.2c-.3.2-.5.3-.6.6h1.8v.7l-2.7-.1zm-1.7 12.5 9.5-5.4v-15H37.3v14.9l9.6 5.5z"/><path fill="#ffd200" d="M90.2 64.5H3.6l-3.2 7 3.2 7h86.6l3.1-7z"/><path fill="#252530" d="M22.04 60.12q-1.15 0-2.03-.45-.88-.45-1.36-1.27-.49-.82-.49-1.88v-6.84q0-.07.05-.13.05-.05.13-.05h1.75q.08 0 .13.05.06.06.06.13v6.86q0 .79.48 1.28.49.49 1.28.49.8 0 1.29-.49t.49-1.28v-6.86q0-.07.05-.13.05-.05.12-.05h1.76q.07 0 .13.05.05.06.05.13v6.84q0 1.06-.49 1.88-.49.82-1.36 1.27-.88.45-2.04.45Zm8.57-.02q-1 0-1.75-.28t-1.17-.79q-.41-.51-.41-1.16v-.15q0-.07.05-.13.06-.05.13-.05h1.66q.08 0 .13.05.05.06.05.13v.01q0 .34.37.57.37.23.93.23.51 0 .82-.2.31-.21.31-.5 0-.27-.27-.41-.26-.13-.88-.28-.71-.18-1.11-.35-.96-.33-1.53-.81-.57-.48-.57-1.38 0-1.11.86-1.76.87-.65 2.29-.65.96 0 1.68.3.72.31 1.12.87.39.55.39 1.26 0 .07-.05.12-.05.05-.13.05h-1.6q-.07 0-.13-.05-.05-.05-.05-.12 0-.33-.34-.56-.33-.23-.89-.23-.49 0-.81.19-.32.18-.32.49 0 .3.31.45.31.15 1.03.32.16.04.38.09.21.05.44.13 1.07.32 1.68.81.62.5.62 1.44 0 1.11-.88 1.73-.87.62-2.36.62Zm7.53-7.93q.98 0 1.74.34t1.19.92q.43.59.43 1.31v5.08q0 .08-.05.13-.06.05-.13.05h-1.76q-.07 0-.12-.05-.06-.05-.06-.13v-.49q0-.05-.02-.06-.04-.02-.06.03-.64.82-2.03.82-1.17 0-1.89-.57t-.72-1.68q0-1.15.81-1.79.81-.64 2.31-.64h1.53q.07 0 .07-.07v-.33q0-.5-.29-.78-.31-.27-.91-.27-.46 0-.77.16-.3.17-.39.47-.05.16-.2.15L35 54.53q-.18-.03-.16-.14.06-.63.5-1.14.44-.51 1.17-.79.73-.29 1.63-.29Zm-.3 6.38q.64 0 1.09-.35.45-.35.45-.89v-.54q0-.07-.07-.07h-1.08q-.68 0-1.06.26-.38.25-.38.72 0 .4.28.63.29.24.77.24Zm11.97-4.3q.28.79.28 1.87 0 1.03-.25 1.81-.35 1.02-1.1 1.61-.76.58-1.79.58-1.1 0-1.73-.82-.03-.03-.06-.03-.03.01-.03.06v.49q0 .08-.05.13-.06.05-.13.05h-1.76q-.07 0-.12-.05-.06-.05-.06-.13V49.68q0-.07.06-.13.05-.05.12-.05h1.76q.07 0 .13.05.05.06.05.13v3.21q0 .05.03.06.03.01.06-.03.58-.75 1.66-.75 1.1 0 1.84.56t1.09 1.52Zm-2.22 3.41q.31-.57.31-1.5 0-1.04-.36-1.59-.36-.58-1.06-.58-.66 0-1.01.58-.33.57-.33 1.58 0 1 .3 1.51.36.65 1.05.65.74 0 1.1-.65Zm5.03-6.24q-.52 0-.85-.34-.34-.33-.34-.84 0-.53.33-.86.33-.33.86-.33.52 0 .85.33.33.33.33.86 0 .51-.34.84-.34.34-.84.34Zm-.9 8.58q-.08 0-.13-.05t-.05-.13v-7.36q0-.08.05-.13t.13-.05h1.75q.08 0 .13.05t.05.13v7.36q0 .08-.05.13t-.13.05h-1.75Zm3.76 0q-.07 0-.13-.05-.05-.05-.05-.13V49.68q0-.07.05-.13.06-.05.13-.05h1.76q.07 0 .12.05.06.06.06.13v10.14q0 .08-.06.13-.05.05-.12.05h-1.76Zm4.62-8.58q-.51 0-.85-.34-.34-.33-.34-.84 0-.53.33-.86.34-.33.86-.33t.85.33q.33.33.33.86 0 .51-.33.84-.34.34-.85.34ZM59.2 60q-.08 0-.13-.05t-.05-.13v-7.36q0-.08.05-.13t.13-.05h1.75q.08 0 .13.05t.05.13v7.36q0 .08-.05.13t-.13.05H59.2Zm8.01-6.19q0 .07-.05.12-.05.06-.13.06h-1.44q-.07 0-.07.07v3.18q0 .49.2.74.2.24.65.24h.5q.07 0 .12.05.06.05.06.13v1.42q0 .17-.18.19-.64.03-.9.03-1.25 0-1.86-.41-.62-.41-.63-1.55v-4.02q0-.07-.08-.07h-.85q-.08 0-.13-.06-.05-.05-.05-.12v-1.34q0-.07.05-.13.05-.05.13-.05h.85q.08 0 .08-.08v-1.78q0-.07.05-.13.05-.05.13-.05h1.68q.07 0 .12.05.06.06.06.13v1.78q0 .08.07.08h1.44q.08 0 .13.05.05.06.05.13v1.34Zm1.23 9.17q-.04 0-.07-.05-.03-.05-.03-.13v-1.37q0-.08.05-.13.05-.06.13-.06.63-.01.99-.1.37-.09.59-.35.22-.25.34-.75.01-.03 0-.08l-2.46-7.47q-.02-.03-.02-.08 0-.13.17-.13H70q.17 0 .21.15l1.26 4.86q.02.04.05.04.03 0 .04-.04l1.26-4.86q.05-.15.21-.15h1.83q.09 0 .13.05.04.05.01.16l-2.6 7.79q-.37 1.1-.76 1.65-.39.55-1.1.8-.7.25-1.99.25h-.11ZM38.17 39.53q-.09.04 0 .09 1.42.73 1.42 2.44 0 1.46-.99 2.2-.99.74-2.59.74h-3.89q-.07 0-.12-.05-.06-.05-.06-.13V34.68q0-.07.06-.13.05-.05.12-.05h3.77q3.55 0 3.55 2.88 0 1.5-1.27 2.15Zm-4.04-3.22q-.07 0-.07.08v2.34q0 .08.07.08h1.76q.7 0 1.1-.33.38-.33.38-.9 0-.59-.38-.93-.4-.34-1.1-.34h-1.76Zm1.88 6.86q.69 0 1.08-.35.39-.35.39-.97 0-.61-.39-.97-.39-.35-1.1-.35h-1.86q-.07 0-.07.08v2.48q0 .08.07.08h1.88Zm11.92-2.82q.09.57.06 1.27-.01.19-.19.19h-4.64q-.09 0-.06.07.05.3.17.6.39.84 1.59.84.96-.01 1.51-.78.06-.09.14-.09.04 0 .1.06l1.08 1.06q.08.08.08.14 0 .03-.06.12-.5.62-1.28.95-.77.34-1.71.34-1.29 0-2.18-.58-.89-.59-1.28-1.64-.32-.75-.32-1.96 0-.83.23-1.46.34-1.06 1.21-1.69.86-.63 2.04-.63 1.5 0 2.41.87.91.87 1.1 2.32Zm-3.49-1.36q-.95 0-1.25.88-.06.2-.1.48 0 .07.07.07h2.6q.09 0 .06-.07-.08-.43-.08-.42-.13-.45-.47-.7-.34-.24-.83-.24Zm7.83 6.11q-1.01 0-1.76-.28t-1.16-.79q-.41-.51-.41-1.16v-.15q0-.07.05-.13.05-.05.13-.05h1.66q.08 0 .13.05.05.06.05.13v.01q0 .34.37.57.37.23.92.23.51 0 .83-.2.31-.21.31-.5 0-.27-.27-.41-.27-.13-.88-.28-.71-.18-1.11-.35-.96-.33-1.53-.81-.57-.48-.57-1.38 0-1.11.86-1.76.86-.65 2.29-.65.96 0 1.68.3.72.31 1.12.87.39.55.39 1.26 0 .07-.05.12-.05.05-.13.05h-1.6q-.08 0-.13-.05t-.05-.12q0-.33-.34-.56-.34-.23-.89-.23-.5 0-.81.19-.32.18-.32.49 0 .3.31.45.31.15 1.03.32.16.04.37.09.21.05.45.13 1.07.32 1.68.81.62.5.62 1.44 0 1.11-.88 1.73-.88.62-2.36.62Zm8.86-6.29q0 .07-.05.12-.05.06-.13.06h-1.44q-.07 0-.07.07v3.18q0 .49.2.74.2.24.66.24h.49q.07 0 .13.05.05.05.05.13v1.42q0 .17-.18.19-.63.03-.9.03-1.25 0-1.86-.41-.62-.41-.63-1.55v-4.02q0-.07-.08-.07h-.85q-.08 0-.13-.06-.05-.05-.05-.12v-1.34q0-.07.05-.13.05-.05.13-.05h.85q.08 0 .08-.08v-1.78q0-.07.05-.13.05-.05.13-.05h1.68q.07 0 .13.05.05.06.05.13v1.78q0 .08.07.08h1.44q.08 0 .13.05.05.06.05.13v1.34Z"/><path fill="#242530" d="M30.46 75.48q-.78 0-1.36-.25-.58-.25-.9-.7-.31-.45-.31-1.06v-.25q0-.05.04-.09.03-.03.08-.03h.89q.05 0 .09.03.03.04.03.09v.19q0 .46.41.76.41.31 1.12.31.61 0 .92-.26.31-.26.31-.67 0-.28-.17-.48-.17-.19-.48-.35-.32-.16-.95-.4-.71-.26-1.15-.49-.44-.23-.73-.63-.3-.39-.3-.98 0-.88.64-1.39.64-.51 1.71-.51.75 0 1.33.26.57.26.89.73.32.46.32 1.07v.17q0 .05-.04.09-.03.03-.08.03h-.9q-.05 0-.08-.03-.04-.04-.04-.09v-.11q0-.47-.38-.79-.39-.33-1.07-.33-.55 0-.85.23-.31.23-.31.65 0 .3.16.49t.48.34q.32.16.99.4.71.27 1.14.49.42.22.73.61.3.4.3.99 0 .9-.67 1.43-.66.53-1.81.53Zm6.1 0q-.74 0-1.31-.29-.57-.29-.88-.82-.32-.54-.32-1.24v-4.61q0-.05.04-.08.03-.04.08-.04h.92q.05 0 .09.04.03.03.03.08v4.63q0 .59.37.96t.98.37q.61 0 .98-.37t.37-.96v-4.63q0-.05.04-.08.03-.04.08-.04h.92q.05 0 .09.04.03.03.03.08v4.61q0 .7-.31 1.24-.31.53-.88.82-.57.29-1.32.29Zm8.42-7q.05-.08.14-.08h.92q.05 0 .09.04.03.03.03.08v6.76q0 .05-.03.08-.04.04-.09.04h-.92q-.05 0-.09-.04-.03-.03-.03-.08v-4.77q0-.03-.03-.04-.02-.01-.03.02l-1.25 1.92q-.05.08-.14.08h-.46q-.09 0-.14-.08l-1.26-1.91q-.01-.03-.04-.02-.02.01-.02.04v4.76q0 .05-.03.08-.04.04-.09.04h-.92q-.05 0-.08-.04-.04-.03-.04-.08v-6.76q0-.05.04-.08.03-.04.08-.04h.92q.09 0 .14.08l1.63 2.47q.02.02.04.02t.03-.02l1.63-2.47Zm7.15 0q.05-.08.14-.08h.92q.05 0 .08.04.04.03.04.08v6.76q0 .05-.04.08-.03.04-.08.04h-.92q-.05 0-.08-.04-.04-.03-.04-.08v-4.77q0-.03-.02-.04-.03-.01-.04.02l-1.25 1.92q-.05.08-.14.08h-.46q-.09 0-.14-.08l-1.26-1.91q-.01-.03-.03-.02-.03.01-.03.04v4.76q0 .05-.03.08-.04.04-.09.04h-.92q-.05 0-.08-.04-.04-.03-.04-.08v-6.76q0-.05.04-.08.03-.04.08-.04h.92q.09 0 .14.08l1.63 2.47q.02.02.04.02t.03-.02l1.63-2.47Zm7.38.8q0 .05-.03.08-.04.04-.09.04h-3.41q-.05 0-.05.05v1.87q0 .05.05.05h2.29q.05 0 .09.03.03.04.03.09v.76q0 .05-.03.09-.04.03-.09.03h-2.29q-.05 0-.05.05v1.93q0 .05.05.05h3.41q.05 0 .09.04.03.03.03.08v.76q0 .05-.03.08-.04.04-.09.04h-4.5q-.05 0-.08-.04-.04-.03-.04-.08v-6.76q0-.05.04-.08.03-.04.08-.04h4.5q.05 0 .09.04.03.03.03.08v.76Zm5.11 6.12q-.1 0-.14-.09l-1.32-2.88q-.02-.04-.06-.04h-1.2q-.05 0-.05.05v2.84q0 .05-.04.08-.03.04-.08.04h-.92q-.05 0-.08-.04-.04-.03-.04-.08v-6.76q0-.05.04-.08.03-.04.08-.04h2.75q.61 0 1.08.25.47.26.73.72.26.47.26 1.07 0 .69-.36 1.17-.35.49-.98.68-.02 0-.03.02-.01.02 0 .04l1.41 2.91q.02.04.02.06 0 .08-.11.08h-.96Zm-2.72-6q-.05 0-.05.05v1.99q0 .05.05.05h1.5q.48 0 .77-.29.3-.28.3-.75t-.3-.76q-.29-.29-.77-.29h-1.5Z"/><path fill="#252530" d="M33.49 93.46q-.03.03-.02.06.02.03.06.03h3.93q.07 0 .12.05.06.05.06.12v1.41q0 .07-.06.12-.05.05-.12.05h-6.52q-.08 0-.13-.05t-.05-.12v-1.34q0-.13.09-.22.71-.69 1.45-1.51.74-.82.93-1.02.4-.48.82-.92 1.32-1.46 1.32-2.17 0-.51-.36-.84-.36-.32-.94-.32t-.94.32q-.37.33-.37.87v.36q0 .07-.05.12-.05.05-.12.05h-1.71q-.07 0-.12-.05-.06-.05-.06-.12v-.68q.05-.78.5-1.39.45-.6 1.19-.92.75-.32 1.68-.32 1.03 0 1.79.39.76.38 1.17 1.03.42.66.42 1.45 0 .61-.31 1.25-.3.64-.91 1.38-.45.56-.97 1.12-.52.55-1.55 1.59l-.22.22Zm8.86 2q-1.6 0-2.52-.89-.93-.89-.93-2.43v-3.83q0-1.51.93-2.39.92-.89 2.52-.89 1.59 0 2.53.89.93.88.93 2.39v3.83q0 1.54-.93 2.43-.94.89-2.53.89Zm0-1.75q.65 0 1.03-.4.39-.4.39-1.07v-3.99q0-.66-.39-1.06-.38-.4-1.03-.4-.64 0-1.02.4-.39.4-.39 1.06v3.99q0 .67.39 1.07.38.4 1.02.4Zm7.52-.25q-.03.03-.01.06.01.03.06.03h3.93q.07 0 .12.05.05.05.05.12v1.41q0 .07-.05.12-.05.05-.12.05h-6.53q-.07 0-.12-.05-.05-.05-.05-.12v-1.34q0-.13.08-.22.72-.69 1.45-1.51.74-.82.93-1.02.41-.48.83-.92 1.32-1.46 1.32-2.17 0-.51-.36-.84-.37-.32-.95-.32t-.94.32q-.36.33-.36.87v.36q0 .07-.05.12-.05.05-.13.05h-1.71q-.07 0-.12-.05-.05-.05-.05-.12v-.68q.04-.78.49-1.39.45-.6 1.2-.92.75-.32 1.67-.32 1.03 0 1.79.39.77.38 1.18 1.03.41.66.41 1.45 0 .61-.3 1.25-.31.64-.92 1.38-.45.56-.97 1.12-.52.55-1.55 1.59l-.22.22Zm12.66-2.58q.07 0 .13.05.05.05.05.12v1.47q0 .07-.05.12-.06.05-.13.05h-.62q-.07 0-.07.07v2.37q0 .07-.05.12-.06.05-.13.05h-1.69q-.08 0-.13-.05t-.05-.12v-2.37q0-.07-.07-.07h-4.45q-.07 0-.13-.05-.05-.05-.05-.12v-1.16q0-.09.05-.22l2.61-5.86q.06-.13.2-.13h1.81q.1 0 .14.05.04.05-.01.15l-2.42 5.44q-.01.03 0 .06.02.03.05.03h2.2q.07 0 .07-.08v-1.79q0-.08.05-.13t.13-.05h1.69q.07 0 .13.05.05.05.05.13v1.79q0 .08.07.08h.62Z"/></svg>
